<?xml version="1.0" encoding="utf-8"?>
<!-- Generator: Adobe Illustrator 24.2.3, SVG Export Plug-In . SVG Version: 6.00 Build 0)  -->
<svg version="1.1" xmlns="http://www.w3.org/2000/svg" xmlns:xlink="http://www.w3.org/1999/xlink" x="0px" y="0px"
	 viewBox="0 0 1080 1080" style="enable-background:new 0 0 1080 1080;" xml:space="preserve">
<style type="text/css">
	.st0{fill:#D92579;stroke:#D92579;stroke-miterlimit:10;}
	.st1{fill:#D25EF2;stroke:#D25EF2;stroke-miterlimit:10;}
	.st2{fill:#39BF24;stroke:#39BF24;stroke-miterlimit:10;}
	.st3{fill:#F2CB05;stroke:#F2CB05;stroke-miterlimit:10;}
	.st4{fill:#D98E04;stroke:#D98E04;stroke-miterlimit:10;}
</style>
<g id="Layer_1">
	<rect x="896.25" y="-313.25" class="st0" width="93" height="86"/>
	<rect x="1029.75" y="-312.75" class="st1" width="93" height="86"/>
	<rect x="1154.75" y="-312.75" class="st2" width="93" height="86"/>
	<rect x="1279.75" y="-312.75" class="st3" width="93" height="86"/>
	<rect x="1404.75" y="-312.75" class="st4" width="93" height="86"/>
</g>
<g id="Layer_2">
	<g>
		<g>
			<path d="M168.9,252.66c-1.43,1.85-3.16,3.31-5.22,4.36c-2.05,1.05-4.25,1.69-6.59,1.92c-2.34,0.23-4.67,0.01-7-0.65
				c-2.33-0.66-4.51-1.77-6.54-3.34c-2.73-2.1-4.72-4.58-5.98-7.46c-1.26-2.88-1.73-5.84-1.41-8.89c0.32-3.05,1.46-5.85,3.42-8.39
				c1.82-2.36,4-4.06,6.57-5.1c2.56-1.04,5.2-1.26,7.93-0.67l-0.46,1.38c-2.44-0.43-4.83-0.16-7.17,0.81
				c-2.34,0.98-4.31,2.5-5.9,4.57c-1.76,2.29-2.77,4.82-3.03,7.6c-0.26,2.78,0.19,5.5,1.36,8.16c1.16,2.66,3,4.95,5.51,6.88
				c2.47,1.9,5.18,3.09,8.14,3.57c2.96,0.48,5.79,0.26,8.49-0.67c2.71-0.92,4.93-2.51,6.66-4.77c1.15-1.49,1.98-3.16,2.51-5.01
				c0.53-1.85,0.73-3.64,0.62-5.38c-0.11-1.73-0.57-3.14-1.36-4.21l1.17-0.84c0.96,1.38,1.52,3.02,1.67,4.93
				c0.15,1.91-0.06,3.84-0.64,5.8C171.08,249.23,170.16,251.02,168.9,252.66z"/>
			<path d="M144.26,202.36l0.9-1.04l34.27,29.49c1.01,0.87,2.09,1.25,3.22,1.14s2.15-0.69,3.04-1.73c0.33-0.38,0.68-0.88,1.06-1.49
				c0.38-0.61,0.69-1.21,0.94-1.78l1.15,0.35c-0.25,0.57-0.62,1.28-1.11,2.13c-0.49,0.85-0.94,1.52-1.36,2
				c-1.05,1.22-2.29,1.87-3.74,1.95c-1.44,0.09-2.81-0.43-4.11-1.54L144.26,202.36z"/>
			<path d="M159.48,193.11l-3.91-3.57l0.93-1.02l3.91,3.57L159.48,193.11z M192.61,223.42l-26.33-24.08l0.93-1.02l26.33,24.08
				L192.61,223.42z"/>
			<path d="M211.83,204.5c-1.66,1.64-3.59,2.84-5.76,3.61c-2.18,0.76-4.44,1.1-6.79,1c-2.35-0.1-4.63-0.63-6.84-1.6
				c-2.21-0.97-4.22-2.37-6.02-4.2c-2.41-2.45-4.05-5.18-4.9-8.2c-0.85-3.02-0.91-6.02-0.18-9c0.73-2.98,2.24-5.59,4.53-7.85
				c2.12-2.09,4.52-3.48,7.2-4.16c2.68-0.68,5.33-0.54,7.95,0.42l-0.64,1.31c-2.36-0.76-4.77-0.82-7.22-0.17
				c-2.45,0.65-4.61,1.89-6.47,3.72c-2.06,2.03-3.4,4.4-4.04,7.12c-0.63,2.72-0.56,5.47,0.23,8.27c0.79,2.79,2.3,5.32,4.52,7.57
				c2.19,2.22,4.71,3.77,7.58,4.65c2.86,0.88,5.7,1.04,8.51,0.5c2.81-0.55,5.22-1.82,7.25-3.82c1.34-1.32,2.39-2.86,3.17-4.62
				c0.77-1.76,1.22-3.51,1.35-5.24c0.13-1.73-0.13-3.19-0.77-4.36l1.27-0.67c0.77,1.5,1.1,3.2,0.99,5.11
				c-0.11,1.91-0.58,3.8-1.42,5.65C214.45,201.4,213.29,203.05,211.83,204.5z"/>
			<path d="M246.96,172.23l-24.85-5.78l-1.67,13.01l7.55,8.89l-1.05,0.89l-32.5-38.25l1.05-0.89l23.74,27.94l4.2-32.65l1.42-1.2
				l-2.58,20.85l25.95,6.12L246.96,172.23z"/>
			<path d="M256.32,142.82l-0.78-1.13l16.05-11.01l0.78,1.13L256.32,142.82z"/>
			<path d="M280.66,126.49l-0.71-1.18l16.68-10.02l0.71,1.18L280.66,126.49z"/>
			<path d="M305.94,111.64l-0.64-1.22l17.25-9l0.64,1.22L305.94,111.64z"/>
			<path d="M370.08,102.39c-2.18,0.86-4.41,1.21-6.72,1.05c-2.3-0.15-4.51-0.74-6.64-1.75c-2.12-1.01-4.01-2.4-5.66-4.16
				c-1.65-1.76-2.95-3.84-3.89-6.23c-1.26-3.2-1.69-6.36-1.29-9.47c0.4-3.11,1.52-5.89,3.37-8.34c1.84-2.45,4.26-4.26,7.25-5.44
				c2.77-1.09,5.52-1.42,8.25-0.99c2.73,0.43,5.11,1.6,7.14,3.51l-1.1,0.95c-1.87-1.63-4.06-2.63-6.57-2.99
				c-2.51-0.37-4.98-0.07-7.41,0.88c-2.69,1.06-4.86,2.71-6.51,4.96c-1.65,2.25-2.66,4.82-3.03,7.69c-0.37,2.88,0.02,5.79,1.18,8.73
				c1.14,2.9,2.85,5.32,5.14,7.25c2.29,1.93,4.83,3.2,7.63,3.8c2.8,0.6,5.52,0.38,8.16-0.66c1.75-0.69,3.33-1.69,4.73-3.01
				c1.4-1.32,2.5-2.75,3.3-4.29c0.8-1.54,1.13-2.98,1-4.31l1.43-0.12c0.12,1.68-0.25,3.37-1.1,5.09c-0.85,1.71-2.03,3.26-3.53,4.64
				C373.71,100.57,372,101.63,370.08,102.39z"/>
			<path d="M374.87,46.57l1.31-0.43l14.18,42.93c0.42,1.27,1.14,2.15,2.17,2.64c1.03,0.49,2.2,0.51,3.5,0.08
				c0.48-0.16,1.04-0.4,1.68-0.73c0.64-0.33,1.21-0.68,1.72-1.04l0.8,0.89c-0.51,0.36-1.19,0.78-2.05,1.26
				c-0.86,0.48-1.59,0.81-2.2,1.02c-1.52,0.5-2.93,0.42-4.21-0.25c-1.28-0.67-2.19-1.81-2.73-3.44L374.87,46.57z"/>
			<path d="M392.69,46.49l-1.51-5.08l1.32-0.39l1.51,5.08L392.69,46.49z M405.46,89.54l-10.15-34.21l1.32-0.39l10.15,34.21
				L405.46,89.54z"/>
			<path d="M431.68,83.25c-2.27,0.55-4.54,0.58-6.8,0.11c-2.26-0.47-4.37-1.35-6.33-2.65c-1.96-1.3-3.64-2.93-5.04-4.91
				c-1.39-1.97-2.39-4.21-2.99-6.71c-0.8-3.34-0.79-6.53,0.03-9.56c0.83-3.03,2.32-5.63,4.49-7.8c2.17-2.17,4.81-3.63,7.93-4.38
				c2.9-0.7,5.67-0.64,8.31,0.16c2.64,0.8,4.84,2.29,6.59,4.46l-1.22,0.79c-1.63-1.87-3.66-3.16-6.09-3.87
				c-2.43-0.71-4.92-0.76-7.46-0.15c-2.81,0.68-5.19,2.01-7.13,4.01c-1.95,2-3.3,4.4-4.07,7.2c-0.76,2.8-0.78,5.74-0.04,8.81
				c0.73,3.03,2.09,5.66,4.09,7.89c2,2.23,4.34,3.84,7.03,4.81c2.69,0.98,5.41,1.14,8.18,0.47c1.83-0.44,3.53-1.21,5.1-2.32
				c1.57-1.11,2.86-2.37,3.86-3.79c1-1.42,1.53-2.8,1.59-4.13l1.43,0.08c-0.12,1.68-0.71,3.31-1.79,4.89
				c-1.08,1.58-2.46,2.95-4.14,4.11C435.52,81.94,433.68,82.76,431.68,83.25z"/>
			<path d="M478.4,73.77l-18.29-17.8l-8.15,10.28l1.87,11.51l-1.36,0.22l-8.05-49.54l1.36-0.22l5.88,36.19l20.47-25.78l1.83-0.3
				l-12.99,16.52l19.05,18.65L478.4,73.77z"/>
			<path d="M501.62,53.45l-0.08-1.37l19.43-1.13l0.08,1.37L501.62,53.45z"/>
			<path d="M530.99,51.9l0.02-1.38l19.46,0.32l-0.02,1.38L530.99,51.9z"/>
			<path d="M560.2,52.37l0.08-1.37l19.42,1.18l-0.08,1.37L560.2,52.37z"/>
			<path d="M619.96,77.47c-2.31-0.39-4.41-1.24-6.3-2.55c-1.9-1.32-3.49-2.96-4.79-4.92c-1.3-1.96-2.2-4.12-2.71-6.48
				c-0.51-2.36-0.55-4.81-0.13-7.34c0.57-3.39,1.82-6.32,3.77-8.78s4.34-4.27,7.18-5.42c2.84-1.15,5.85-1.46,9.01-0.93
				c2.94,0.49,5.47,1.62,7.59,3.4c2.12,1.77,3.56,4,4.32,6.68l-1.44,0.25c-0.77-2.36-2.13-4.34-4.09-5.95
				c-1.96-1.61-4.23-2.63-6.81-3.06c-2.85-0.48-5.56-0.17-8.13,0.9c-2.58,1.08-4.76,2.76-6.56,5.04s-2.96,4.98-3.48,8.1
				c-0.51,3.08-0.29,6.03,0.68,8.86c0.97,2.83,2.49,5.23,4.58,7.18c2.09,1.95,4.54,3.16,7.34,3.63c1.85,0.31,3.72,0.26,5.6-0.14
				c1.88-0.41,3.56-1.07,5.04-1.98c1.48-0.91,2.5-1.97,3.08-3.18l1.29,0.63c-0.76,1.5-1.95,2.76-3.56,3.8
				c-1.61,1.03-3.42,1.75-5.42,2.16S621.99,77.81,619.96,77.47z"/>
			<path d="M652.78,32.07l1.34,0.3l-9.93,44.11c-0.29,1.31-0.13,2.43,0.51,3.38s1.62,1.57,2.96,1.87c0.49,0.11,1.1,0.19,1.81,0.23
				c0.72,0.04,1.39,0.04,2.01-0.01l0.23,1.18c-0.62,0.05-1.42,0.06-2.4,0.02c-0.98-0.03-1.78-0.12-2.41-0.26
				c-1.57-0.35-2.73-1.15-3.48-2.38c-0.76-1.23-0.95-2.68-0.57-4.35L652.78,32.07z"/>
			<path d="M656.93,84.66l8.9-34.56l1.33,0.34L658.26,85L656.93,84.66z M668.13,41.18l1.32-5.13l1.33,0.34l-1.32,5.13L668.13,41.18z
				"/>
			<path d="M682.62,92.75c-2.23-0.7-4.19-1.83-5.89-3.4c-1.7-1.56-3.05-3.41-4.07-5.53c-1.02-2.12-1.61-4.39-1.79-6.8
				c-0.18-2.41,0.12-4.84,0.88-7.29c1.03-3.28,2.68-6.01,4.95-8.18c2.27-2.17,4.89-3.63,7.86-4.38c2.97-0.75,5.99-0.64,9.05,0.32
				c2.84,0.89,5.19,2.36,7.05,4.41c1.85,2.05,2.97,4.45,3.36,7.22l-1.46,0.05c-0.43-2.44-1.51-4.59-3.23-6.46
				c-1.72-1.86-3.83-3.18-6.32-3.97c-2.75-0.87-5.48-0.94-8.18-0.23c-2.7,0.71-5.1,2.08-7.19,4.08c-2.1,2.01-3.62,4.52-4.57,7.54
				c-0.93,2.97-1.12,5.93-0.55,8.87c0.56,2.94,1.75,5.52,3.55,7.75c1.8,2.22,4.06,3.76,6.77,4.61c1.79,0.56,3.65,0.77,5.57,0.63
				c1.92-0.14,3.67-0.56,5.26-1.27c1.59-0.7,2.75-1.61,3.49-2.73l1.19,0.81c-0.96,1.38-2.31,2.47-4.05,3.27
				c-1.74,0.8-3.63,1.26-5.66,1.39C686.59,93.61,684.59,93.37,682.62,92.75z"/>
			<path d="M727.56,108.67L721.04,84l-12.28,4.62l-4.32,10.84l-1.28-0.51l18.59-46.62l1.28,0.51l-13.58,34.06l30.82-11.56l1.72,0.69
				l-19.64,7.48l6.74,25.8L727.56,108.67z"/>
			<path d="M757.92,103.2l0.64-1.22l17.23,9.05l-0.64,1.22L757.92,103.2z"/>
			<path d="M783.74,117.09l0.71-1.18l16.65,10.07l-0.71,1.18L783.74,117.09z"/>
			<path d="M808.68,132.51l0.78-1.13l16.02,11.05l-0.78,1.13L808.68,132.51z"/>
			<path d="M846.86,184.89c-1.77-1.52-3.13-3.34-4.07-5.44c-0.94-2.11-1.46-4.33-1.56-6.68c-0.1-2.35,0.24-4.67,1.03-6.95
				c0.78-2.29,2.01-4.4,3.68-6.35c2.24-2.61,4.83-4.47,7.77-5.57s5.92-1.41,8.95-0.93c3.03,0.48,5.76,1.77,8.19,3.86
				c2.26,1.94,3.84,4.22,4.74,6.83c0.9,2.61,0.98,5.26,0.24,7.95l-1.36-0.53c0.56-2.42,0.42-4.82-0.43-7.21
				c-0.85-2.39-2.27-4.43-4.25-6.14c-2.19-1.88-4.67-3.02-7.43-3.43c-2.76-0.41-5.5-0.1-8.22,0.92c-2.72,1.02-5.11,2.73-7.17,5.13
				c-2.03,2.37-3.36,5.01-4,7.94c-0.64,2.93-0.57,5.76,0.21,8.52c0.78,2.75,2.25,5.05,4.4,6.9c1.43,1.22,3.05,2.15,4.87,2.77
				c1.82,0.63,3.6,0.93,5.34,0.91c1.74-0.02,3.16-0.4,4.28-1.13l0.78,1.21c-1.43,0.89-3.1,1.36-5.01,1.41
				c-1.92,0.05-3.83-0.27-5.75-0.95C850.17,187.25,848.42,186.23,846.86,184.89z"/>
			<path d="M898.4,162.97l0.99,0.95l-31.28,32.65c-0.93,0.97-1.36,2.02-1.31,3.16c0.05,1.14,0.58,2.18,1.57,3.13
				c0.36,0.35,0.84,0.73,1.43,1.14c0.59,0.41,1.17,0.75,1.72,1.03l-0.41,1.13c-0.56-0.28-1.25-0.69-2.07-1.22
				c-0.82-0.53-1.46-1.02-1.93-1.47c-1.16-1.11-1.74-2.39-1.75-3.84c-0.01-1.45,0.58-2.79,1.76-4.02L898.4,162.97z"/>
			<path d="M874.8,210.14l25.46-25.01l0.96,0.98l-25.46,25.01L874.8,210.14z M906.83,178.68l3.78-3.71l0.96,0.98l-3.78,3.71
				L906.83,178.68z"/>
			<path d="M892.65,230.32c-1.55-1.75-2.65-3.73-3.29-5.95c-0.65-2.21-0.86-4.49-0.63-6.83c0.22-2.34,0.88-4.59,1.97-6.75
				c1.09-2.16,2.59-4.09,4.51-5.79c2.57-2.28,5.39-3.77,8.45-4.46s6.06-0.59,8.99,0.3c2.93,0.89,5.46,2.54,7.59,4.94
				c1.98,2.23,3.23,4.7,3.77,7.41c0.53,2.71,0.25,5.35-0.84,7.91l-1.27-0.71c0.89-2.32,1.07-4.72,0.56-7.2
				c-0.52-2.48-1.64-4.7-3.37-6.66c-1.92-2.16-4.21-3.63-6.89-4.41c-2.68-0.78-5.44-0.85-8.27-0.21c-2.83,0.64-5.43,2.01-7.8,4.11
				c-2.33,2.07-4.02,4.51-5.04,7.32c-1.03,2.81-1.35,5.63-0.95,8.47c0.4,2.83,1.54,5.31,3.42,7.44c1.25,1.41,2.73,2.54,4.45,3.41
				c1.72,0.87,3.44,1.41,5.16,1.63c1.72,0.22,3.19,0.04,4.39-0.54l0.6,1.3c-1.54,0.69-3.25,0.92-5.16,0.71
				c-1.9-0.21-3.76-0.79-5.57-1.72C895.61,233.11,894.02,231.87,892.65,230.32z"/>
			<path d="M922.99,267.11l7.1-24.51l-12.9-2.36l-9.28,7.07l-0.83-1.09l39.93-30.41l0.83,1.09l-29.17,22.21l32.38,5.94l1.12,1.48
				l-20.69-3.69l-7.5,25.59L922.99,267.11z"/>
			<path d="M951.86,278.05l1.17-0.72l10.13,16.62l-1.17,0.72L951.86,278.05z"/>
			<path d="M966.86,303.24l1.21-0.64l9.11,17.19l-1.21,0.64L966.86,303.24z"/>
			<path d="M980.33,329.27l1.25-0.57l8.06,17.71l-1.25,0.57L980.33,329.27z"/>
			<path d="M986.11,393.82c-0.74-2.22-0.97-4.47-0.69-6.76c0.28-2.29,0.98-4.47,2.11-6.53c1.13-2.07,2.61-3.87,4.46-5.43
				c1.85-1.56,3.99-2.74,6.43-3.55c3.26-1.08,6.44-1.34,9.52-0.77s5.8,1.84,8.15,3.81c2.35,1.97,4.02,4.48,5.04,7.53
				c0.94,2.83,1.12,5.59,0.54,8.3c-0.58,2.7-1.87,5.02-3.89,6.94l-0.89-1.15c1.73-1.78,2.84-3.91,3.34-6.4
				c0.5-2.49,0.34-4.97-0.48-7.45c-0.91-2.74-2.45-5-4.6-6.77c-2.16-1.77-4.67-2.92-7.52-3.44c-2.86-0.53-5.78-0.29-8.79,0.71
				c-2.96,0.98-5.46,2.56-7.52,4.74c-2.05,2.18-3.46,4.65-4.2,7.41c-0.75,2.76-0.68,5.49,0.22,8.19c0.59,1.78,1.51,3.41,2.75,4.88
				c1.24,1.47,2.61,2.65,4.11,3.53c1.5,0.88,2.92,1.29,4.25,1.23l0.04,1.44c-1.68,0.03-3.36-0.43-5.02-1.38
				c-1.67-0.94-3.15-2.2-4.44-3.78C987.73,397.54,986.76,395.78,986.11,393.82z"/>
			<path d="M1041.58,401.62l0.36,1.33l-43.64,11.83c-1.29,0.35-2.21,1.03-2.75,2.03c-0.54,1-0.63,2.17-0.27,3.49
				c0.13,0.49,0.35,1.06,0.64,1.71c0.3,0.66,0.61,1.25,0.94,1.77l-0.94,0.75c-0.33-0.53-0.71-1.23-1.14-2.11
				c-0.43-0.88-0.73-1.63-0.9-2.25c-0.42-1.55-0.26-2.95,0.48-4.19c0.74-1.25,1.93-2.09,3.58-2.54L1041.58,401.62z"/>
			<path d="M997.02,429.86l34.71-8.28l0.32,1.34l-34.71,8.28L997.02,429.86z M1040.7,419.44l5.15-1.23l0.32,1.34l-5.15,1.23
				L1040.7,419.44z"/>
			<path d="M1001.89,456.36c-0.42-2.3-0.34-4.56,0.25-6.79c0.59-2.23,1.59-4.29,2.99-6.18c1.4-1.89,3.12-3.48,5.17-4.76
				c2.05-1.29,4.33-2.16,6.86-2.63c3.38-0.62,6.56-0.44,9.54,0.55c2.98,0.99,5.49,2.62,7.54,4.9c2.05,2.28,3.37,5,3.95,8.15
				c0.54,2.93,0.34,5.69-0.61,8.29c-0.94,2.6-2.55,4.71-4.81,6.34l-0.72-1.27c1.96-1.53,3.35-3.48,4.2-5.88
				c0.84-2.39,1.03-4.87,0.55-7.44c-0.52-2.84-1.73-5.29-3.62-7.34c-1.89-2.05-4.22-3.54-6.97-4.45c-2.76-0.92-5.69-1.08-8.8-0.51
				c-3.07,0.56-5.77,1.78-8.1,3.66c-2.34,1.87-4.06,4.13-5.19,6.76c-1.12,2.63-1.43,5.34-0.91,8.14c0.34,1.85,1.02,3.59,2.04,5.22
				c1.02,1.63,2.21,2.98,3.58,4.06c1.36,1.08,2.71,1.68,4.04,1.81l-0.16,1.43c-1.67-0.21-3.26-0.89-4.78-2.06
				c-1.52-1.17-2.81-2.62-3.88-4.35C1002.98,460.27,1002.26,458.39,1001.89,456.36z"/>
			<path d="M1008.83,503.52l18.75-17.31l-9.82-8.69l-11.6,1.25l-0.15-1.37l49.91-5.38l0.15,1.37l-36.45,3.93l24.64,21.82l0.2,1.85
				l-15.8-13.86l-19.65,18.03L1008.83,503.52z"/>
			<path d="M1027.78,527.51l1.38-0.02l0.32,19.46l-1.38,0.02L1027.78,527.51z"/>
			<path d="M1027.75,557.11l1.37,0.07l-1.05,19.43l-1.37-0.07L1027.75,557.11z"/>
			<path d="M1025.87,586.37l1.37,0.16l-2.21,19.33l-1.37-0.16L1025.87,586.37z"/>
			<path d="M997.6,644.67c0.51-2.28,1.47-4.33,2.89-6.15c1.42-1.82,3.14-3.33,5.17-4.52c2.03-1.19,4.23-1.98,6.62-2.36
				c2.39-0.38,4.83-0.29,7.34,0.27c3.36,0.75,6.21,2.16,8.56,4.24s4.03,4.56,5.03,7.46c1,2.9,1.14,5.92,0.44,9.05
				c-0.65,2.91-1.92,5.37-3.8,7.39c-1.88,2.02-4.19,3.34-6.91,3.95l-0.17-1.45c2.4-0.64,4.45-1.89,6.16-3.77
				c1.71-1.87,2.85-4.08,3.42-6.63c0.63-2.82,0.47-5.54-0.46-8.17c-0.94-2.63-2.5-4.9-4.68-6.82c-2.18-1.92-4.81-3.22-7.9-3.91
				c-3.04-0.68-6-0.61-8.89,0.2c-2.88,0.81-5.35,2.21-7.42,4.19c-2.06,1.98-3.4,4.36-4.02,7.13c-0.41,1.83-0.46,3.7-0.16,5.6
				c0.3,1.9,0.87,3.61,1.71,5.14c0.83,1.52,1.84,2.61,3.01,3.24l-0.7,1.25c-1.46-0.84-2.66-2.1-3.6-3.76
				c-0.94-1.67-1.56-3.51-1.87-5.53C997.08,648.7,997.15,646.68,997.6,644.67z"/>
			<path d="M1041.15,679.93l-0.38,1.32l-43.51-12.31c-1.29-0.36-2.42-0.26-3.4,0.32c-0.98,0.58-1.66,1.53-2.03,2.86
				c-0.14,0.48-0.25,1.08-0.33,1.8c-0.08,0.71-0.12,1.38-0.1,2.01l-1.19,0.16c-0.01-0.62,0.02-1.42,0.11-2.4
				c0.09-0.98,0.22-1.77,0.39-2.39c0.44-1.54,1.29-2.66,2.57-3.35c1.27-0.69,2.73-0.8,4.38-0.33L1041.15,679.93z"/>
			<path d="M988.42,681.2l34.03,10.76l-0.41,1.31l-34.03-10.76L988.42,681.2z M1031.23,694.73l5.05,1.6l-0.41,1.31l-5.05-1.6
				L1031.23,694.73z"/>
			<path d="M978.95,706.43c0.82-2.19,2.06-4.09,3.71-5.7c1.65-1.61,3.57-2.86,5.74-3.76c2.17-0.9,4.47-1.37,6.88-1.42
				c2.42-0.05,4.83,0.38,7.23,1.28c3.22,1.21,5.85,3,7.9,5.38c2.04,2.38,3.36,5.08,3.95,8.09s0.32,6.02-0.81,9.02
				c-1.04,2.79-2.64,5.06-4.79,6.8c-2.15,1.74-4.61,2.73-7.39,2.96l0.03-1.46c2.46-0.3,4.67-1.26,6.62-2.88
				c1.95-1.62,3.39-3.65,4.3-6.1c1.01-2.7,1.24-5.42,0.67-8.16c-0.57-2.73-1.8-5.2-3.69-7.4c-1.89-2.2-4.32-3.86-7.28-4.97
				c-2.92-1.09-5.86-1.44-8.83-1.03c-2.97,0.41-5.61,1.45-7.93,3.13c-2.32,1.68-3.97,3.85-4.97,6.51c-0.66,1.76-0.97,3.6-0.93,5.52
				c0.04,1.92,0.36,3.7,0.98,5.32c0.61,1.63,1.46,2.83,2.53,3.63l-0.87,1.14c-1.33-1.04-2.34-2.44-3.04-4.22
				c-0.7-1.78-1.07-3.69-1.08-5.73C977.88,710.34,978.23,708.36,978.95,706.43z"/>
			<path d="M960.62,750.44l24.99-5.18l-3.95-12.51l-10.59-4.9l0.58-1.25l45.55,21.09l-0.58,1.25l-33.27-15.4l9.88,31.4l-0.78,1.68
				l-6.4-20.01l-26.12,5.33L960.62,750.44z"/>
			<path d="M964.44,781.07l1.18,0.7l-9.96,16.72l-1.18-0.7L964.44,781.07z"/>
			<path d="M949.19,806.09l1.14,0.77l-10.95,16.09l-1.14-0.77L949.19,806.09z"/>
			<path d="M932.46,830.16l1.09,0.84l-11.89,15.41l-1.09-0.84L932.46,830.16z"/>
			<path d="M878.12,865.48c1.61-1.69,3.5-2.95,5.65-3.78c2.15-0.83,4.41-1.23,6.76-1.2c2.35,0.03,4.65,0.49,6.89,1.4
				c2.24,0.9,4.29,2.24,6.15,4.02c2.49,2.37,4.2,5.06,5.15,8.05c0.94,2.99,1.09,5.99,0.45,8.99c-0.64,3-2.07,5.66-4.29,7.98
				c-2.06,2.16-4.42,3.61-7.07,4.37c-2.66,0.76-5.31,0.7-7.96-0.18l0.6-1.33c2.38,0.69,4.79,0.68,7.22-0.04
				c2.43-0.72,4.55-2.03,6.35-3.92c1.99-2.09,3.27-4.5,3.82-7.24c0.55-2.74,0.39-5.49-0.48-8.26c-0.87-2.77-2.46-5.25-4.74-7.43
				c-2.25-2.15-4.83-3.63-7.71-4.42c-2.89-0.79-5.73-0.87-8.52-0.24s-5.17,1.97-7.13,4.03c-1.3,1.36-2.31,2.93-3.03,4.71
				c-0.72,1.78-1.12,3.54-1.19,5.28c-0.07,1.74,0.23,3.18,0.9,4.33l-1.25,0.71c-0.81-1.47-1.19-3.17-1.14-5.08
				c0.05-1.92,0.47-3.81,1.25-5.7C875.59,868.66,876.69,866.97,878.12,865.48z"/>
			<path d="M897.25,918.13l-1,0.94l-30.93-32.98c-0.92-0.98-1.94-1.47-3.08-1.48s-2.21,0.46-3.21,1.4c-0.37,0.34-0.77,0.8-1.21,1.37
				c-0.44,0.57-0.81,1.13-1.12,1.67l-1.1-0.47c0.31-0.54,0.75-1.21,1.33-2c0.58-0.79,1.1-1.41,1.57-1.85
				c1.17-1.1,2.48-1.61,3.92-1.54c1.45,0.07,2.75,0.72,3.92,1.97L897.25,918.13z"/>
			<path d="M851.41,892.03l23.62,26.75L874,919.7l-23.62-26.75L851.41,892.03z M881.13,925.7l3.5,3.97l-1.03,0.91l-3.5-3.97
				L881.13,925.7z"/>
			<path d="M830.28,908.8c1.83-1.45,3.87-2.44,6.11-2.97c2.25-0.53,4.53-0.62,6.86-0.27c2.33,0.35,4.54,1.12,6.63,2.32
				c2.1,1.2,3.94,2.81,5.54,4.82c2.14,2.69,3.47,5.58,4,8.68c0.53,3.09,0.27,6.08-0.78,8.96c-1.05,2.88-2.83,5.32-5.34,7.32
				c-2.33,1.85-4.87,2.97-7.6,3.36c-2.74,0.39-5.35-0.03-7.86-1.26l0.78-1.23c2.27,1.01,4.65,1.32,7.16,0.94s4.78-1.39,6.83-3.01
				c2.26-1.8,3.85-4.01,4.77-6.65c0.92-2.64,1.14-5.38,0.65-8.25c-0.49-2.86-1.72-5.53-3.68-8.01c-1.94-2.44-4.29-4.25-7.04-5.43
				c-2.75-1.18-5.55-1.65-8.4-1.4c-2.85,0.24-5.39,1.25-7.61,3.02c-1.47,1.17-2.69,2.59-3.64,4.26s-1.59,3.36-1.9,5.07
				c-0.31,1.71-0.21,3.18,0.3,4.41l-1.33,0.53c-0.6-1.57-0.75-3.3-0.43-5.19c0.31-1.89,0.99-3.71,2.02-5.47
				C827.34,911.61,828.66,910.08,830.28,908.8z"/>
			<path d="M791.92,937.12l24.09,8.41l3.05-12.76l-6.56-9.65l1.14-0.77l28.23,41.51l-1.14,0.77l-20.62-30.32l-7.67,32.01l-1.54,1.04
				l4.8-20.46l-25.15-8.86L791.92,937.12z"/>
			<path d="M779.46,965.35l0.65,1.21l-17.14,9.22l-0.65-1.21L779.46,965.35z"/>
			<path d="M753.5,978.99l0.58,1.25l-17.66,8.17l-0.58-1.25L753.5,978.99z"/>
			<path d="M726.77,991.03l0.5,1.28l-18.12,7.09l-0.5-1.28L726.77,991.03z"/>
			<path d="M662,993.3c2.25-0.62,4.52-0.72,6.79-0.32c2.27,0.4,4.41,1.22,6.41,2.46c2,1.24,3.73,2.82,5.18,4.75
				c1.45,1.93,2.52,4.14,3.19,6.61c0.91,3.32,0.99,6.5,0.25,9.55s-2.15,5.69-4.25,7.93c-2.1,2.24-4.69,3.78-7.79,4.62
				c-2.87,0.78-5.64,0.82-8.31,0.09c-2.67-0.72-4.91-2.14-6.72-4.26l1.2-0.83c1.69,1.82,3.75,3.05,6.21,3.69
				c2.46,0.64,4.94,0.61,7.46-0.08c2.79-0.76,5.12-2.17,7.01-4.23c1.89-2.06,3.17-4.5,3.85-7.32c0.68-2.82,0.6-5.76-0.23-8.81
				c-0.82-3.01-2.26-5.6-4.33-7.76c-2.06-2.17-4.46-3.7-7.17-4.6c-2.71-0.9-5.44-0.97-8.19-0.22c-1.81,0.5-3.49,1.32-5.03,2.48
				c-1.54,1.16-2.79,2.46-3.75,3.91c-0.96,1.45-1.44,2.84-1.46,4.18l-1.44-0.04c0.06-1.68,0.61-3.33,1.65-4.94
				c1.03-1.61,2.37-3.02,4.01-4.23C658.2,994.72,660.01,993.85,662,993.3z"/>
			<path d="M651.22,1048.27l-1.34,0.29l-9.46-44.21c-0.28-1.31-0.91-2.26-1.88-2.86c-0.97-0.59-2.13-0.75-3.47-0.46
				c-0.49,0.11-1.08,0.29-1.75,0.55c-0.67,0.26-1.28,0.54-1.82,0.85l-0.7-0.98c0.54-0.3,1.27-0.65,2.17-1.03
				c0.9-0.38,1.67-0.64,2.3-0.77c1.57-0.34,2.96-0.1,4.16,0.7c1.2,0.8,1.98,2.04,2.34,3.71L651.22,1048.27z"/>
			<path d="M625.43,1002.25l6.39,35.11l-1.35,0.25l-6.39-35.11L625.43,1002.25z M633.48,1046.43l0.95,5.21l-1.35,0.25l-0.95-5.21
				L633.48,1046.43z"/>
			<path d="M598.71,1005.68c2.32-0.3,4.58-0.09,6.77,0.62c2.2,0.71,4.2,1.82,6.01,3.32c1.81,1.5,3.3,3.31,4.48,5.42
				s1.92,4.44,2.25,6.99c0.44,3.41,0.09,6.58-1.06,9.5c-1.15,2.92-2.92,5.34-5.3,7.27c-2.39,1.92-5.17,3.09-8.35,3.5
				c-2.95,0.38-5.7,0.03-8.25-1.05c-2.54-1.08-4.57-2.8-6.07-5.14l1.3-0.65c1.42,2.04,3.3,3.54,5.64,4.51
				c2.34,0.97,4.81,1.29,7.4,0.95c2.86-0.37,5.37-1.44,7.52-3.22s3.76-4.02,4.82-6.72c1.06-2.7,1.39-5.62,0.99-8.76
				c-0.4-3.09-1.47-5.85-3.22-8.29c-1.75-2.43-3.9-4.28-6.47-5.54c-2.57-1.26-5.26-1.71-8.08-1.35c-1.86,0.24-3.64,0.83-5.32,1.76
				c-1.68,0.93-3.1,2.05-4.25,3.36c-1.15,1.3-1.82,2.62-2.02,3.94l-1.42-0.23c0.29-1.66,1.07-3.21,2.31-4.67
				c1.25-1.46,2.77-2.67,4.56-3.64C594.75,1006.56,596.67,1005.94,598.71,1005.68z"/>
			<path d="M551.23,1010.09l16.28,19.65l9.2-9.35l-0.63-11.65l1.37-0.07l2.71,50.12l-1.37,0.07l-1.98-36.61l-23.11,23.44l-1.85,0.1
				l14.68-15.03l-16.95-20.58L551.23,1010.09z"/>
			<path d="M525.99,1027.84l-0.07,1.37l-19.44-0.93l0.07-1.37L525.99,1027.84z"/>
			<path d="M496.71,1026.15l-0.15,1.37l-19.35-2.09l0.15-1.37L496.71,1026.15z"/>
			<path d="M467.59,1022.71l-0.23,1.36l-19.19-3.25l0.23-1.36L467.59,1022.71z"/>
			<path d="M410.88,991.33c2.25,0.63,4.25,1.71,5.99,3.22c1.74,1.51,3.15,3.31,4.23,5.4c1.08,2.09,1.75,4.34,2,6.74
				c0.25,2.4,0.03,4.84-0.66,7.31c-0.93,3.31-2.5,6.08-4.7,8.32s-4.78,3.78-7.73,4.61c-2.95,0.84-5.97,0.82-9.06-0.05
				c-2.87-0.81-5.26-2.21-7.18-4.2c-1.92-1.99-3.11-4.36-3.57-7.11l1.45-0.09c0.51,2.43,1.65,4.55,3.43,6.36
				c1.78,1.81,3.92,3.07,6.44,3.77c2.78,0.78,5.51,0.77,8.18-0.02c2.68-0.79,5.03-2.23,7.07-4.3c2.03-2.07,3.48-4.63,4.33-7.67
				c0.84-3,0.94-5.96,0.28-8.88c-0.65-2.92-1.92-5.47-3.78-7.63c-1.87-2.17-4.17-3.64-6.9-4.4c-1.81-0.51-3.67-0.66-5.58-0.46
				c-1.91,0.2-3.65,0.67-5.22,1.42c-1.57,0.75-2.7,1.69-3.4,2.83l-1.21-0.77c0.92-1.41,2.24-2.54,3.95-3.39
				c1.72-0.85,3.59-1.37,5.62-1.56C406.89,990.59,408.9,990.77,410.88,991.33z"/>
			<path d="M373.35,1032.92l-1.3-0.45l14.64-42.78c0.43-1.27,0.39-2.41-0.14-3.41c-0.53-1.01-1.44-1.74-2.74-2.18
				c-0.48-0.16-1.07-0.31-1.78-0.43c-0.71-0.12-1.38-0.19-2-0.21l-0.1-1.2c0.62,0.02,1.42,0.1,2.39,0.24
				c0.97,0.14,1.76,0.31,2.37,0.52c1.52,0.52,2.59,1.44,3.2,2.74c0.62,1.31,0.65,2.77,0.1,4.39L373.35,1032.92z"/>
			<path d="M359.08,1022.21l-1.87,4.96l-1.29-0.49l1.87-4.95L359.08,1022.21z M374.92,980.19l-12.58,33.39l-1.29-0.49l12.59-33.39
				L374.92,980.19z"/>
			<path d="M350.25,969.38c2.14,0.94,3.97,2.28,5.49,4.01c1.52,1.74,2.66,3.72,3.44,5.94c0.78,2.22,1.13,4.53,1.05,6.95
				c-0.08,2.42-0.64,4.8-1.67,7.15c-1.38,3.15-3.31,5.68-5.8,7.59c-2.49,1.91-5.25,3.08-8.29,3.5c-3.04,0.42-6.02-0.01-8.96-1.3
				c-2.73-1.19-4.91-2.91-6.53-5.15c-1.62-2.24-2.47-4.75-2.56-7.54l1.45,0.11c0.17,2.48,1.01,4.73,2.52,6.77
				c1.51,2.04,3.46,3.58,5.86,4.63c2.65,1.16,5.35,1.53,8.11,1.11c2.76-0.42,5.29-1.51,7.59-3.28c2.3-1.77,4.08-4.1,5.35-7
				c1.25-2.86,1.75-5.78,1.51-8.76c-0.24-2.98-1.14-5.68-2.69-8.08c-1.55-2.4-3.63-4.18-6.23-5.32c-1.72-0.75-3.54-1.16-5.47-1.23
				c-1.92-0.07-3.71,0.16-5.37,0.69c-1.66,0.53-2.91,1.3-3.76,2.33l-1.09-0.93c1.11-1.27,2.57-2.21,4.38-2.81
				c1.82-0.61,3.74-0.86,5.78-0.77C346.4,968.09,348.36,968.55,350.25,969.38z"/>
			<path d="M307.28,948.69l3.82,25.23l12.7-3.26l5.46-10.31l1.21,0.64l-23.51,44.35l-1.21-0.64l17.17-32.39l-31.88,8.17l-1.64-0.87
				l20.33-5.32l-3.92-26.37L307.28,948.69z"/>
			<path d="M276.51,950.87l-0.77,1.14l-16.16-10.84l0.77-1.14L276.51,950.87z"/>
			<path d="M252.33,934.29l-0.83,1.09l-15.48-11.79l0.83-1.09L252.33,934.29z"/>
			<path d="M229.19,916.29l-0.9,1.04l-14.75-12.7l0.9-1.04L229.19,916.29z"/>
			<path d="M196.83,860.14c1.6,1.7,2.76,3.65,3.47,5.85c0.71,2.19,0.99,4.46,0.84,6.81c-0.15,2.35-0.74,4.62-1.76,6.81
				c-1.02,2.19-2.47,4.16-4.34,5.92c-2.5,2.36-5.28,3.92-8.31,4.71s-6.04,0.77-9-0.03c-2.96-0.8-5.54-2.37-7.74-4.71
				c-2.04-2.17-3.37-4.6-3.99-7.3c-0.61-2.69-0.41-5.34,0.61-7.93l1.29,0.67c-0.82,2.34-0.93,4.75-0.34,7.21
				c0.59,2.47,1.78,4.65,3.57,6.55c1.98,2.1,4.32,3.5,7.02,4.2c2.7,0.7,5.46,0.68,8.27-0.04c2.81-0.72,5.37-2.17,7.67-4.34
				c2.27-2.14,3.88-4.62,4.82-7.47c0.95-2.84,1.18-5.67,0.7-8.49c-0.48-2.82-1.7-5.26-3.64-7.33c-1.29-1.37-2.8-2.46-4.55-3.28
				c-1.74-0.81-3.48-1.31-5.21-1.47c-1.73-0.17-3.19,0.06-4.37,0.67l-0.64-1.28c1.52-0.73,3.23-1.02,5.13-0.87
				c1.91,0.16,3.78,0.67,5.62,1.56C193.79,857.45,195.41,858.64,196.83,860.14z"/>
			<path d="M143.24,876.45l-0.89-1.05l34.58-29.13c1.02-0.86,1.57-1.86,1.64-3c0.07-1.14-0.34-2.23-1.23-3.28
				c-0.32-0.39-0.76-0.81-1.31-1.28c-0.54-0.47-1.08-0.87-1.6-1.21l0.53-1.08c0.52,0.34,1.17,0.82,1.93,1.43
				c0.76,0.62,1.35,1.17,1.76,1.66c1.03,1.23,1.48,2.56,1.33,4c-0.14,1.44-0.87,2.71-2.18,3.81L143.24,876.45z"/>
			<path d="M136.52,859.91l-4.15,3.29l-0.85-1.08l4.15-3.29L136.52,859.91z M171.72,832.04l-27.98,22.15l-0.85-1.08l27.98-22.15
				L171.72,832.04z"/>
			<path d="M156.13,810.07c1.35,1.91,2.23,3.99,2.64,6.26c0.41,2.27,0.37,4.56-0.1,6.86c-0.47,2.3-1.36,4.47-2.68,6.5
				c-1.31,2.03-3.01,3.79-5.11,5.28c-2.8,1.99-5.76,3.17-8.88,3.53c-3.12,0.36-6.09-0.06-8.91-1.26c-2.82-1.2-5.16-3.11-7.02-5.72
				c-1.73-2.43-2.71-5.02-2.95-7.77c-0.24-2.75,0.32-5.35,1.68-7.78l1.19,0.84c-1.13,2.21-1.57,4.58-1.32,7.1
				c0.25,2.52,1.13,4.85,2.64,6.98c1.67,2.35,3.8,4.06,6.38,5.12c2.58,1.06,5.32,1.42,8.2,1.09c2.88-0.33,5.61-1.42,8.19-3.25
				c2.54-1.81,4.47-4.05,5.8-6.74c1.33-2.69,1.94-5.46,1.85-8.32c-0.09-2.86-0.96-5.45-2.61-7.76c-1.09-1.53-2.44-2.82-4.06-3.87
				c-1.61-1.05-3.27-1.77-4.96-2.17c-1.69-0.4-3.17-0.38-4.42,0.07l-0.46-1.36c1.6-0.52,3.34-0.57,5.2-0.16
				c1.87,0.41,3.66,1.18,5.35,2.31C153.49,806.99,154.94,808.39,156.13,810.07z"/>
			<path d="M129.91,770.25l-9.69,23.61l12.58,3.73l9.98-6.03l0.71,1.18l-42.96,25.96l-0.71-1.18l31.38-18.96l-31.55-9.37l-0.96-1.59
				l20.17,5.89l10.19-24.64L129.91,770.25z"/>
			<path d="M102.38,756.29l-1.24,0.58l-8.28-17.61l1.24-0.58L102.38,756.29z"/>
			<path d="M90.17,729.62l-1.28,0.51l-7.21-18.08l1.28-0.51L90.17,729.62z"/>
			<path d="M79.59,702.27l-1.31,0.43l-6.1-18.48l1.31-0.43L79.59,702.27z"/>
			<path d="M80.82,637.48c0.49,2.29,0.48,4.55-0.05,6.8c-0.52,2.25-1.46,4.34-2.8,6.27c-1.34,1.93-3.02,3.57-5.02,4.92
				c-2.01,1.35-4.26,2.29-6.77,2.83c-3.36,0.72-6.54,0.64-9.55-0.26c-3.01-0.9-5.57-2.46-7.69-4.67c-2.12-2.22-3.52-4.89-4.19-8.03
				c-0.63-2.91-0.51-5.68,0.35-8.31c0.87-2.62,2.4-4.78,4.62-6.48l0.76,1.24c-1.91,1.58-3.25,3.58-4.02,6
				c-0.77,2.42-0.88,4.9-0.33,7.46c0.61,2.82,1.89,5.23,3.84,7.23c1.95,1.99,4.32,3.41,7.1,4.24c2.78,0.83,5.72,0.91,8.81,0.25
				c3.05-0.66,5.71-1.96,7.99-3.9c2.28-1.94,3.94-4.25,4.98-6.91c1.04-2.66,1.27-5.38,0.67-8.16c-0.4-1.84-1.13-3.55-2.2-5.15
				c-1.07-1.6-2.3-2.91-3.7-3.95c-1.4-1.04-2.76-1.6-4.09-1.69l0.11-1.43c1.68,0.16,3.29,0.79,4.84,1.91
				c1.55,1.12,2.89,2.53,4.01,4.24C79.61,633.61,80.39,635.47,80.82,637.48z"/>
			<path d="M26.52,623.75l-0.21-1.36l44.66-7.06c1.32-0.21,2.31-0.78,2.95-1.72s0.86-2.08,0.65-3.44c-0.08-0.5-0.23-1.09-0.45-1.77
				c-0.22-0.68-0.47-1.31-0.75-1.87l1.01-0.65c0.27,0.56,0.58,1.3,0.91,2.22c0.33,0.92,0.55,1.7,0.65,2.33
				c0.25,1.58-0.06,2.96-0.93,4.11c-0.87,1.16-2.15,1.87-3.83,2.14L26.52,623.75z"/>
			<path d="M29.32,606.15l-5.25,0.67l-0.17-1.36l5.25-0.67L29.32,606.15z M73.86,600.5l-35.4,4.5l-0.17-1.36l35.4-4.5L73.86,600.5z"
				/>
			<path d="M71.87,573.61c0.17,2.33-0.15,4.57-0.98,6.73c-0.83,2.15-2.04,4.09-3.63,5.82c-1.59,1.73-3.48,3.12-5.65,4.18
				c-2.17,1.06-4.54,1.68-7.1,1.88c-3.43,0.26-6.57-0.27-9.43-1.57c-2.86-1.3-5.18-3.2-6.98-5.68c-1.79-2.49-2.81-5.33-3.05-8.53
				c-0.22-2.97,0.27-5.7,1.49-8.18c1.22-2.48,3.04-4.41,5.46-5.79l0.58,1.34c-2.11,1.31-3.71,3.1-4.8,5.39
				c-1.09,2.29-1.54,4.74-1.35,7.34c0.22,2.88,1.16,5.44,2.82,7.68c1.66,2.24,3.81,3.97,6.45,5.17c2.64,1.21,5.54,1.69,8.69,1.45
				c3.11-0.23,5.92-1.16,8.45-2.77c2.52-1.61,4.48-3.67,5.88-6.16c1.4-2.5,1.99-5.16,1.78-7.99c-0.14-1.87-0.63-3.68-1.47-5.41
				c-0.84-1.73-1.88-3.2-3.12-4.42c-1.24-1.22-2.51-1.96-3.82-2.23l0.31-1.4c1.64,0.38,3.15,1.24,4.54,2.56
				c1.39,1.32,2.52,2.9,3.39,4.75C71.2,569.6,71.71,571.55,71.87,573.61z"/>
			<path d="M69.76,526.09l-20.25,15.53l8.99,9.55l11.66-0.19l0.02,1.38L20,553.17l-0.02-1.38l36.66-0.59l-22.55-23.98l-0.03-1.86
				l14.47,15.24l21.21-16.16L69.76,526.09z"/>
			<path d="M53.59,499.79l-1.37-0.14l1.97-19.36l1.37,0.14L53.59,499.79z"/>
			<path d="M56.85,470.64l-1.36-0.22l3.13-19.21l1.36,0.22L56.85,470.64z"/>
			<path d="M61.85,441.76l-1.34-0.3l4.28-18.98l1.34,0.3L61.85,441.76z"/>
			<path d="M96.24,386.85c-0.75,2.21-1.93,4.15-3.54,5.8c-1.6,1.66-3.48,2.97-5.62,3.93c-2.14,0.97-4.42,1.51-6.84,1.63
				c-2.41,0.12-4.84-0.23-7.27-1.06c-3.25-1.11-5.94-2.82-8.06-5.14s-3.51-4.97-4.19-7.96c-0.68-2.99-0.5-6,0.54-9.04
				c0.96-2.82,2.49-5.13,4.58-6.94c2.09-1.8,4.52-2.87,7.29-3.18l0.01,1.46c-2.45,0.38-4.63,1.4-6.53,3.08
				c-1.9,1.68-3.27,3.75-4.12,6.23c-0.93,2.73-1.07,5.46-0.42,8.17c0.65,2.72,1.95,5.14,3.91,7.29c1.96,2.14,4.43,3.72,7.43,4.74
				c2.95,1,5.9,1.26,8.86,0.76c2.95-0.5,5.56-1.62,7.83-3.36c2.27-1.75,3.86-3.96,4.77-6.66c0.61-1.78,0.86-3.63,0.76-5.55
				c-0.1-1.92-0.48-3.68-1.14-5.29c-0.66-1.61-1.54-2.79-2.64-3.55l0.83-1.17c1.36,1,2.41,2.37,3.17,4.13
				c0.76,1.76,1.18,3.66,1.26,5.69C97.2,382.9,96.91,384.89,96.24,386.85z"/>
			<path d="M56.75,347.11l0.51-1.28l41.92,16.93c1.24,0.5,2.38,0.52,3.42,0.05s1.81-1.34,2.33-2.62c0.19-0.47,0.36-1.05,0.52-1.75
				c0.16-0.7,0.27-1.36,0.32-1.98l1.2-0.03c-0.05,0.62-0.18,1.41-0.37,2.37c-0.19,0.96-0.41,1.74-0.65,2.33
				c-0.6,1.49-1.57,2.5-2.91,3.05c-1.34,0.55-2.8,0.5-4.39-0.14L56.75,347.11z"/>
			<path d="M68.22,333.45l-4.85-2.13l0.55-1.26l4.85,2.13L68.22,333.45z M109.31,351.53l-32.66-14.37l0.55-1.26l32.66,14.37
				L109.31,351.53z"/>
			<path d="M121.45,327.48c-1.05,2.09-2.49,3.84-4.3,5.26c-1.82,1.42-3.86,2.46-6.11,3.12c-2.26,0.66-4.59,0.88-7,0.67
				c-2.41-0.21-4.76-0.9-7.05-2.05c-3.07-1.55-5.49-3.61-7.27-6.2c-1.78-2.59-2.79-5.41-3.05-8.46c-0.26-3.06,0.33-6.02,1.78-8.88
				c1.34-2.66,3.17-4.74,5.49-6.24c2.32-1.5,4.88-2.21,7.66-2.15l-0.19,1.44c-2.48,0.03-4.78,0.75-6.89,2.15
				c-2.12,1.4-3.76,3.26-4.94,5.6c-1.3,2.58-1.81,5.26-1.54,8.04c0.27,2.78,1.22,5.36,2.87,7.76c1.64,2.39,3.88,4.3,6.7,5.72
				c2.78,1.4,5.67,2.06,8.67,1.98c2.99-0.08,5.73-0.83,8.22-2.25c2.48-1.42,4.37-3.4,5.64-5.93c0.84-1.68,1.35-3.48,1.52-5.39
				c0.17-1.92,0.04-3.72-0.4-5.4c-0.44-1.68-1.14-2.98-2.13-3.88l0.99-1.04c1.21,1.17,2.06,2.68,2.57,4.53
				c0.51,1.85,0.66,3.79,0.46,5.81C122.94,323.7,122.38,325.63,121.45,327.48z"/>
			<path d="M144.41,285.69l-25.4,2.46l2.58,12.86l10,6.01l-0.71,1.18l-43.02-25.86l0.71-1.18l31.42,18.89l-6.45-32.28l0.96-1.59
				l4.22,20.59l26.55-2.49L144.41,285.69z"/>
		</g>
	</g>
</g>
</svg>
