<?xml version="1.0" encoding="utf-8"?>
<!-- Generator: Adobe Illustrator 24.2.3, SVG Export Plug-In . SVG Version: 6.00 Build 0)  -->
<svg version="1.1" id="Layer_1" xmlns="http://www.w3.org/2000/svg" xmlns:xlink="http://www.w3.org/1999/xlink" x="0px" y="0px"
	 viewBox="0 0 150 274.87" style="enable-background:new 0 0 150 274.87;" xml:space="preserve">
<g>
	<g>
		<path d="M28.62,195.55h28.57v0.85H26.96v-0.64l28.99-23.12H26.96v-0.85h30.23v0.98L28.62,195.55z"/>
		<path d="M57.61,154.98c0,1.45-0.31,2.82-0.92,4.11c-0.61,1.29-1.45,2.43-2.51,3.41c-1.06,0.98-2.3,1.75-3.7,2.3
			c-1.41,0.55-2.9,0.83-4.49,0.83c-2.07,0-3.96-0.47-5.66-1.41s-3.06-2.19-4.07-3.77c-1.01-1.58-1.51-3.33-1.51-5.26
			c0-1.96,0.51-3.74,1.53-5.34s2.39-2.89,4.11-3.85c1.72-0.96,3.64-1.45,5.77-1.45c0.09,0,0.16,0,0.23,0c0.07,0,0.15,0,0.23,0v20.22
			c1.9-0.14,3.62-0.67,5.15-1.58c1.53-0.91,2.75-2.09,3.64-3.53c0.89-1.45,1.34-3.02,1.34-4.73s-0.43-3.29-1.3-4.77
			c-0.87-1.48-1.98-2.53-3.34-3.15l0.21-0.81c0.99,0.4,1.89,1.04,2.7,1.94c0.81,0.89,1.44,1.94,1.89,3.13
			C57.38,152.46,57.61,153.7,57.61,154.98z M45.77,164.77v-19.33c-1.99,0.11-3.74,0.61-5.26,1.49s-2.72,2.03-3.6,3.45
			c-0.88,1.42-1.32,3.01-1.32,4.77c0,1.73,0.44,3.31,1.32,4.73c0.88,1.42,2.09,2.56,3.62,3.43
			C42.07,164.16,43.82,164.65,45.77,164.77z"/>
		<path d="M35.09,111.25v-0.94l22.1,9.67v0.77l-12.39,5.41l12.39,5.41v0.77l-22.1,9.66v-0.94l20.86-9.11l-12.22-5.32l-8.6,3.7v-0.89
			l7.49-3.28l-7.49-3.28v-0.89l8.6,3.7l12.22-5.32L35.09,111.25z"/>
		<path d="M57.18,105.04H26.96v-0.85h30.23V105.04z"/>
		<path d="M46.2,98.01c-2.04,0-3.93-0.45-5.66-1.34c-1.73-0.89-3.13-2.11-4.19-3.66c-1.06-1.55-1.6-3.3-1.6-5.26
			c0-2.02,0.55-3.8,1.64-5.36c1.09-1.56,2.38-2.78,3.85-3.66H26.1v-0.85h29.38c0.26,0,0.46-0.06,0.62-0.19
			c0.16-0.13,0.23-0.29,0.23-0.49h0.85c0,0.25-0.03,0.44-0.08,0.55c-0.14,0.31-0.36,0.55-0.66,0.72c-0.3,0.17-0.62,0.25-0.96,0.25
			h-2.89c1.48,0.94,2.68,2.19,3.62,3.77s1.41,3.2,1.41,4.87c0,1.53-0.33,2.95-0.98,4.26c-0.65,1.31-1.53,2.43-2.62,3.38
			c-1.09,0.95-2.31,1.69-3.66,2.21C49,97.75,47.62,98.01,46.2,98.01z M49.99,78.73h-7.96c-1.19,0.43-2.27,1.12-3.24,2.09
			c-0.96,0.96-1.74,2.06-2.32,3.3c-0.58,1.24-0.87,2.45-0.87,3.64c0,1.45,0.3,2.75,0.89,3.9s1.41,2.14,2.43,2.96
			s2.16,1.46,3.41,1.89c1.25,0.44,2.54,0.66,3.87,0.66c1.39,0,2.72-0.25,3.98-0.75c1.26-0.5,2.39-1.2,3.38-2.11
			c0.99-0.91,1.77-1.95,2.34-3.13c0.57-1.18,0.85-2.45,0.85-3.81c0-0.85-0.18-1.77-0.53-2.75c-0.35-0.98-0.85-1.91-1.49-2.79
			s-1.36-1.6-2.17-2.17C51.75,79.09,50.9,78.78,49.99,78.73z"/>
		<path d="M89.11,253.94H69.47v-8c0-0.81,0.17-1.55,0.51-2.23c0.34-0.67,0.8-1.25,1.37-1.74c0.57-0.49,1.21-0.87,1.91-1.15
			c0.7-0.28,1.42-0.42,2.16-0.42c1.01,0,1.98,0.23,2.89,0.68s1.66,1.07,2.23,1.87c0.57,0.79,0.86,1.73,0.86,2.8v7.64h7.72V253.94z
			 M80.84,253.39v-7.64c0-1-0.27-1.85-0.8-2.57c-0.53-0.72-1.22-1.27-2.05-1.65c-0.83-0.38-1.69-0.57-2.57-0.57
			c-0.94,0-1.82,0.22-2.64,0.66c-0.82,0.44-1.49,1.04-1.99,1.8c-0.51,0.76-0.76,1.6-0.76,2.52v7.44H80.84z"/>
		<path d="M89.39,231.44c0,0.94-0.19,1.83-0.58,2.66c-0.39,0.83-0.93,1.56-1.62,2.19c-0.69,0.63-1.49,1.12-2.38,1.47
			c-0.89,0.35-1.84,0.53-2.84,0.53c-1.01,0-1.97-0.18-2.86-0.54c-0.89-0.36-1.69-0.85-2.38-1.48c-0.69-0.63-1.23-1.36-1.62-2.19
			s-0.58-1.71-0.58-2.63c0-0.92,0.19-1.8,0.58-2.63s0.93-1.56,1.62-2.19c0.69-0.63,1.49-1.12,2.38-1.48
			c0.89-0.36,1.85-0.54,2.86-0.54c1,0,1.94,0.17,2.84,0.53c0.9,0.35,1.69,0.84,2.38,1.48c0.69,0.64,1.23,1.37,1.62,2.19
			C89.2,229.62,89.39,230.5,89.39,231.44z M82.03,237.72c1.24,0,2.37-0.28,3.4-0.84c1.03-0.56,1.86-1.32,2.48-2.27
			c0.62-0.95,0.93-2,0.93-3.14c0-1.14-0.31-2.2-0.94-3.15c-0.63-0.96-1.47-1.72-2.52-2.3c-1.05-0.57-2.2-0.86-3.43-0.86
			c-1.24,0-2.38,0.29-3.42,0.86s-1.88,1.33-2.5,2.28c-0.63,0.95-0.94,2-0.94,3.14c0,1.13,0.32,2.17,0.95,3.13
			c0.64,0.96,1.48,1.73,2.53,2.3C79.62,237.44,80.78,237.72,82.03,237.72z"/>
		<path d="M88.56,222.42L75.3,211.46v10.82h-0.55v-11.51h0.55l13.26,10.93v-10.82h0.55v11.54H88.56z"/>
		<path d="M89.11,196.35v0.55h-8c-2.08,0-3.61,0.29-4.58,0.87c-0.97,0.58-1.45,1.52-1.45,2.81c0,0.92,0.22,1.82,0.65,2.7
			c0.43,0.88,1.02,1.64,1.77,2.28s1.59,1.11,2.53,1.38h9.08v0.55H74.75v-0.55h3.71c-0.77-0.41-1.46-0.94-2.05-1.61
			c-0.59-0.66-1.05-1.41-1.38-2.23c-0.33-0.82-0.5-1.66-0.5-2.5c0-0.74,0.13-1.38,0.4-1.91c0.27-0.53,0.67-0.98,1.2-1.33
			s1.22-0.61,2.05-0.77c0.83-0.17,1.81-0.25,2.93-0.25H89.11z"/>
		<path d="M84.99,193.11c-0.81,0-1.52-0.25-2.13-0.76c-0.61-0.51-1.09-1.2-1.44-2.09s-0.53-1.91-0.53-3.07
			c0-0.81,0.07-1.65,0.21-2.5c0.14-0.86,0.34-1.63,0.59-2.31h-1.63c-1.5,0-2.7,0.43-3.61,1.29c-0.91,0.86-1.37,2-1.37,3.42
			c0,0.68,0.15,1.43,0.46,2.23c0.3,0.8,0.74,1.61,1.31,2.42l-0.44,0.33c-0.63-0.92-1.1-1.8-1.41-2.63s-0.47-1.61-0.47-2.35
			c0-1.6,0.5-2.88,1.49-3.83c1-0.95,2.34-1.42,4.04-1.42h7.94c0.19,0,0.32-0.04,0.42-0.12c0.09-0.08,0.14-0.19,0.14-0.32h0.55
			c0,0.11,0,0.19-0.01,0.25c-0.01,0.05-0.02,0.1-0.04,0.14c-0.07,0.18-0.21,0.33-0.4,0.44c-0.19,0.11-0.41,0.17-0.65,0.17h-1.33
			c0.85,0.66,1.51,1.53,1.99,2.6c0.48,1.07,0.72,2.23,0.72,3.49c0,0.87-0.19,1.65-0.58,2.35c-0.39,0.7-0.92,1.26-1.59,1.67
			S85.8,193.11,84.99,193.11z M86.29,182.79c-0.2-0.15-0.4-0.25-0.6-0.32c-0.19-0.06-0.37-0.1-0.54-0.1h-2.85
			c-0.29,0.74-0.51,1.51-0.65,2.31s-0.21,1.64-0.21,2.5c0,1.6,0.32,2.9,0.97,3.89c0.65,0.99,1.5,1.48,2.57,1.48
			c0.72,0,1.37-0.18,1.95-0.54c0.58-0.36,1.04-0.85,1.38-1.48c0.34-0.63,0.51-1.32,0.51-2.08c0-1.24-0.23-2.37-0.69-3.39
			C87.68,184.05,87.07,183.29,86.29,182.79z"/>
		<path d="M71.26,171.78l-0.33,0.44l-2.02-1.77v-0.94L71.26,171.78z M89.11,166.22v0.55h-8c-2.08,0-3.61,0.29-4.58,0.87
			c-0.97,0.58-1.45,1.52-1.45,2.81c0,0.92,0.22,1.82,0.65,2.7c0.43,0.88,1.02,1.64,1.77,2.28s1.59,1.11,2.53,1.38h9.08v0.55H74.75
			v-0.55h3.71c-0.77-0.41-1.46-0.94-2.05-1.61c-0.59-0.66-1.05-1.41-1.38-2.23c-0.33-0.82-0.5-1.66-0.5-2.5
			c0-0.74,0.13-1.38,0.4-1.91c0.27-0.53,0.67-0.98,1.2-1.33s1.22-0.61,2.05-0.77c0.83-0.17,1.81-0.25,2.93-0.25H89.11z"/>
		<path d="M91.36,160.85l-1.96-0.28v0.25h-2.05v-0.72h2.05l1.96,0.36V160.85z"/>
		<path d="M84.02,132.9c0.9,0,1.74,0.22,2.52,0.66c0.77,0.44,1.4,1.03,1.87,1.77c0.47,0.74,0.71,1.56,0.71,2.46v9.11H69.47v-8.69
			c0-0.92,0.25-1.72,0.73-2.39c0.49-0.67,1.12-1.19,1.88-1.55c0.77-0.36,1.56-0.54,2.39-0.54c1,0,1.91,0.25,2.74,0.76
			c0.83,0.51,1.44,1.19,1.83,2.06c0.33-1.13,0.96-2.02,1.9-2.67C81.87,133.22,82.9,132.9,84.02,132.9z M70.02,146.35h8.91v-7.97
			c0-0.81-0.22-1.52-0.66-2.13c-0.44-0.61-1.01-1.09-1.69-1.44s-1.38-0.53-2.1-0.53c-0.79,0-1.53,0.17-2.2,0.5
			c-0.67,0.33-1.22,0.79-1.63,1.38c-0.42,0.59-0.62,1.27-0.62,2.05V146.35z M84.02,133.45c-0.79,0-1.53,0.18-2.21,0.54
			s-1.24,0.85-1.67,1.48c-0.43,0.63-0.65,1.34-0.65,2.13v8.75h9.08v-8.55c0-0.81-0.22-1.54-0.66-2.2c-0.44-0.66-1.01-1.18-1.7-1.56
			C85.5,133.64,84.78,133.45,84.02,133.45z"/>
		<path d="M89.39,123.4c0,0.94-0.19,1.83-0.58,2.66c-0.39,0.83-0.93,1.56-1.62,2.19c-0.69,0.63-1.49,1.12-2.38,1.47
			c-0.89,0.35-1.84,0.53-2.84,0.53c-1.01,0-1.97-0.18-2.86-0.54c-0.89-0.36-1.69-0.85-2.38-1.48c-0.69-0.63-1.23-1.36-1.62-2.19
			s-0.58-1.71-0.58-2.63c0-0.92,0.19-1.8,0.58-2.63s0.93-1.56,1.62-2.19c0.69-0.63,1.49-1.12,2.38-1.48
			c0.89-0.36,1.85-0.54,2.86-0.54c1,0,1.94,0.17,2.84,0.53c0.9,0.35,1.69,0.84,2.38,1.48c0.69,0.64,1.23,1.37,1.62,2.19
			C89.2,121.58,89.39,122.46,89.39,123.4z M82.03,129.69c1.24,0,2.37-0.28,3.4-0.84c1.03-0.56,1.86-1.32,2.48-2.27
			c0.62-0.95,0.93-2,0.93-3.14c0-1.14-0.31-2.2-0.94-3.15c-0.63-0.96-1.47-1.72-2.52-2.3c-1.05-0.57-2.2-0.86-3.43-0.86
			c-1.24,0-2.38,0.29-3.42,0.86s-1.88,1.33-2.5,2.28c-0.63,0.95-0.94,2-0.94,3.14c0,1.13,0.32,2.17,0.95,3.13
			c0.64,0.96,1.48,1.73,2.53,2.3C79.62,129.4,80.78,129.69,82.03,129.69z"/>
		<path d="M68.91,112.81v-0.55h18.2c0.54,0,0.97-0.17,1.28-0.5s0.47-0.78,0.47-1.33c0-0.2-0.02-0.45-0.07-0.73s-0.11-0.55-0.18-0.79
			l0.44-0.19c0.07,0.24,0.15,0.55,0.22,0.94c0.07,0.39,0.11,0.71,0.11,0.97c0,0.65-0.21,1.17-0.63,1.58
			c-0.42,0.41-0.97,0.61-1.66,0.61H68.91z"/>
		<path d="M89.11,95.82l-8.25,6.12l3.56,3.9h4.7v0.55h-20.2v-0.55h14.76l-8.92-9.8v-0.75l5.72,6.23l8.64-6.36V95.82z"/>
		<path d="M84.99,93.57c-0.81,0-1.52-0.25-2.13-0.76c-0.61-0.51-1.09-1.2-1.44-2.09s-0.53-1.91-0.53-3.07c0-0.81,0.07-1.65,0.21-2.5
			c0.14-0.86,0.34-1.63,0.59-2.31h-1.63c-1.5,0-2.7,0.43-3.61,1.29c-0.91,0.86-1.37,2-1.37,3.42c0,0.68,0.15,1.43,0.46,2.23
			c0.3,0.8,0.74,1.61,1.31,2.42l-0.44,0.33c-0.63-0.92-1.1-1.8-1.41-2.63s-0.47-1.61-0.47-2.35c0-1.6,0.5-2.88,1.49-3.83
			c1-0.95,2.34-1.42,4.04-1.42h7.94c0.19,0,0.32-0.04,0.42-0.12c0.09-0.08,0.14-0.19,0.14-0.32h0.55c0,0.11,0,0.19-0.01,0.25
			c-0.01,0.05-0.02,0.1-0.04,0.14c-0.07,0.18-0.21,0.33-0.4,0.44c-0.19,0.11-0.41,0.17-0.65,0.17h-1.33
			c0.85,0.66,1.51,1.53,1.99,2.6c0.48,1.07,0.72,2.23,0.72,3.49c0,0.87-0.19,1.65-0.58,2.35c-0.39,0.7-0.92,1.26-1.59,1.67
			S85.8,93.57,84.99,93.57z M86.29,83.25c-0.2-0.15-0.4-0.25-0.6-0.32c-0.19-0.06-0.37-0.1-0.54-0.1h-2.85
			c-0.29,0.74-0.51,1.51-0.65,2.31s-0.21,1.64-0.21,2.5c0,1.6,0.32,2.9,0.97,3.89c0.65,0.99,1.5,1.48,2.57,1.48
			c0.72,0,1.37-0.18,1.95-0.54c0.58-0.36,1.04-0.85,1.38-1.48c0.34-0.63,0.51-1.32,0.51-2.08c0-1.24-0.23-2.37-0.69-3.39
			C87.68,84.51,87.07,83.75,86.29,83.25z"/>
		<path d="M89.11,71.63c-0.34,0-0.82-0.04-1.44-0.12c-0.63-0.08-1.31-0.27-2.04-0.57c-0.74-0.29-1.45-0.77-2.14-1.41
			c-0.69-0.65-1.27-1.52-1.74-2.63c-0.22-0.52-0.46-1.07-0.7-1.67c-0.24-0.6-0.54-1.17-0.9-1.7s-0.79-0.97-1.3-1.31
			c-0.51-0.34-1.13-0.51-1.86-0.51c-0.58,0-1.14,0.16-1.68,0.48s-1,0.82-1.36,1.48c-0.37,0.66-0.55,1.5-0.55,2.52
			c0,0.68,0.11,1.3,0.32,1.85s0.46,1.03,0.75,1.44s0.56,0.73,0.82,0.97c0.26,0.24,0.43,0.4,0.53,0.47l-0.33,0.44
			c-0.53-0.46-0.98-0.92-1.33-1.37c-0.35-0.45-0.65-1-0.91-1.63c-0.26-0.64-0.39-1.36-0.39-2.17c0-1.11,0.21-2.03,0.62-2.78
			c0.41-0.75,0.93-1.31,1.57-1.69s1.29-0.57,1.96-0.57c0.84,0,1.55,0.19,2.13,0.57s1.06,0.85,1.44,1.42
			c0.38,0.57,0.71,1.18,0.98,1.81c0.27,0.64,0.52,1.22,0.74,1.76c0.41,0.96,0.92,1.73,1.53,2.31c0.61,0.58,1.23,1.02,1.86,1.33
			c0.63,0.3,1.21,0.51,1.72,0.61s0.9,0.15,1.16,0.15V60.84h0.55V71.63z"/>
		<path d="M69.47,45.42l19.65,12.62v0.69L69.47,46.14V45.42z"/>
		<path d="M83.97,30.04c1.09,0,2.05,0.31,2.87,0.93c0.82,0.62,1.45,1.43,1.89,2.45c0.44,1.01,0.67,2.11,0.67,3.29
			c0,1.31-0.26,2.45-0.78,3.43c-0.52,0.98-1.2,1.73-2.03,2.25c-0.83,0.53-1.72,0.79-2.67,0.79c-0.93,0-1.75-0.22-2.48-0.66
			c-0.72-0.44-1.33-1.01-1.81-1.72s-0.83-1.42-1.03-2.16c-0.24,0.68-0.57,1.31-0.99,1.9s-0.91,1.05-1.49,1.4
			c-0.57,0.35-1.23,0.53-1.97,0.53c-0.76,0-1.43-0.17-2.01-0.5s-1.07-0.78-1.47-1.36c-0.4-0.57-0.7-1.2-0.9-1.9
			c-0.2-0.69-0.31-1.4-0.31-2.12c0-0.72,0.1-1.43,0.31-2.12c0.2-0.69,0.5-1.32,0.9-1.88s0.89-1.01,1.47-1.34
			c0.58-0.33,1.25-0.5,2.01-0.5c0.74,0,1.4,0.18,1.97,0.54c0.57,0.36,1.07,0.83,1.49,1.41s0.74,1.21,0.99,1.9
			c0.24-0.87,0.62-1.64,1.13-2.32c0.51-0.68,1.12-1.23,1.84-1.63C82.28,30.24,83.08,30.04,83.97,30.04z M74.21,41.91
			c0.87,0,1.62-0.27,2.24-0.82s1.09-1.23,1.4-2.05c0.32-0.82,0.47-1.63,0.47-2.42c0-0.81-0.16-1.63-0.49-2.45
			c-0.32-0.82-0.8-1.5-1.43-2.05c-0.63-0.54-1.38-0.82-2.25-0.82c-0.89,0-1.64,0.26-2.25,0.78c-0.61,0.52-1.08,1.18-1.4,1.99
			c-0.32,0.81-0.49,1.67-0.49,2.57c0,0.89,0.17,1.73,0.5,2.53c0.33,0.8,0.81,1.46,1.43,1.96C72.57,41.65,73.32,41.91,74.21,41.91z
			 M83.88,30.59c-0.8,0-1.51,0.18-2.13,0.55c-0.62,0.37-1.15,0.85-1.57,1.44c-0.43,0.59-0.75,1.24-0.97,1.95s-0.33,1.42-0.33,2.12
			c0,0.96,0.21,1.9,0.63,2.81c0.42,0.91,1.01,1.67,1.77,2.27c0.76,0.6,1.65,0.9,2.67,0.9c0.8,0,1.5-0.18,2.12-0.55
			s1.13-0.85,1.56-1.44c0.43-0.59,0.75-1.25,0.97-1.96s0.33-1.42,0.33-2.1c0-0.96-0.2-1.9-0.61-2.81s-0.99-1.67-1.75-2.27
			C85.79,30.89,84.9,30.59,83.88,30.59z"/>
		<path d="M88.56,18.69h0.55v8h-0.55v-3.93H74.23c0.22,0.15,0.47,0.4,0.73,0.75c0.27,0.35,0.53,0.75,0.78,1.2s0.46,0.91,0.62,1.37
			s0.25,0.88,0.25,1.25h-0.66c0-0.5-0.13-1.01-0.39-1.54c-0.26-0.53-0.55-1.01-0.89-1.47s-0.64-0.82-0.91-1.11
			c-0.28-0.29-0.42-0.44-0.44-0.46V22.2h15.25V18.69z"/>
		<path d="M112.21,199.15v-0.37l8.84,3.87v0.31l-4.96,2.16l4.96,2.16v0.31l-8.84,3.87v-0.38l8.34-3.64l-4.89-2.13l-3.44,1.48v-0.36
			l3-1.31l-3-1.31v-0.36l3.44,1.48l4.89-2.13L112.21,199.15z"/>
		<path d="M112.21,185.63v-0.37l8.84,3.87v0.31l-4.96,2.16l4.96,2.16v0.31l-8.84,3.87v-0.38l8.34-3.64l-4.89-2.13l-3.44,1.48v-0.36
			l3-1.31l-3-1.31v-0.36l3.44,1.48l4.89-2.13L112.21,185.63z"/>
		<path d="M112.21,172.11v-0.37l8.84,3.87v0.31l-4.96,2.16l4.96,2.16v0.31l-8.84,3.87v-0.38l8.34-3.64l-4.89-2.13l-3.44,1.48v-0.36
			l3-1.31l-3-1.31v-0.36l3.44,1.48l4.89-2.13L112.21,172.11z"/>
		<path d="M121.05,169.4h-1.77v-0.55h1.77V169.4z"/>
		<path d="M121.05,153.46v0.55h-8c-2.08,0-3.61,0.29-4.58,0.87c-0.97,0.58-1.45,1.52-1.45,2.81c0,0.92,0.22,1.82,0.65,2.7
			c0.43,0.88,1.02,1.64,1.77,2.28s1.59,1.11,2.53,1.38h9.08v0.55h-14.36v-0.55h3.71c-0.77-0.41-1.46-0.94-2.05-1.61
			c-0.59-0.66-1.05-1.41-1.38-2.23c-0.33-0.82-0.5-1.66-0.5-2.5c0-0.74,0.13-1.38,0.4-1.91c0.27-0.53,0.67-0.98,1.2-1.33
			s1.22-0.61,2.05-0.77c0.83-0.17,1.81-0.25,2.93-0.25H121.05z"/>
		<path d="M121.32,143.11c0,0.94-0.2,1.83-0.59,2.67c-0.4,0.84-0.94,1.58-1.63,2.21c-0.69,0.64-1.49,1.13-2.41,1.49
			c-0.91,0.36-1.89,0.54-2.92,0.54c-1.35,0-2.57-0.3-3.68-0.91c-1.11-0.61-1.99-1.42-2.64-2.45c-0.65-1.02-0.98-2.16-0.98-3.42
			c0-1.27,0.33-2.43,1-3.47c0.66-1.04,1.55-1.88,2.67-2.5s2.37-0.94,3.75-0.94c0.05,0,0.11,0,0.15,0c0.05,0,0.1,0,0.15,0v13.15
			c1.24-0.09,2.35-0.43,3.35-1.02c1-0.59,1.79-1.36,2.37-2.3c0.58-0.94,0.87-1.96,0.87-3.07c0-1.11-0.28-2.14-0.84-3.1
			c-0.56-0.96-1.29-1.64-2.17-2.05l0.14-0.53c0.65,0.26,1.23,0.68,1.76,1.26s0.94,1.26,1.23,2.03
			C121.17,141.48,121.32,142.28,121.32,143.11z M113.63,149.48v-12.56c-1.29,0.07-2.43,0.4-3.42,0.97
			c-0.99,0.57-1.77,1.32-2.34,2.24c-0.57,0.92-0.86,1.96-0.86,3.1c0,1.13,0.29,2.15,0.86,3.07c0.57,0.92,1.36,1.67,2.35,2.23
			C111.22,149.08,112.36,149.4,113.63,149.48z"/>
		<path d="M106.68,114.69v-0.61l14.36,6.28v0.5l-8.05,3.51l8.05,3.51v0.5l-14.36,6.28v-0.61l13.56-5.92l-7.94-3.46l-5.59,2.41v-0.58
			l4.87-2.13l-4.87-2.13v-0.58l5.59,2.41l7.94-3.46L106.68,114.69z"/>
		<path d="M121.05,110.65H101.4v-0.55h19.65V110.65z"/>
		<path d="M113.91,106.08c-1.33,0-2.56-0.29-3.68-0.87s-2.03-1.37-2.73-2.38c-0.69-1.01-1.04-2.14-1.04-3.42
			c0-1.31,0.36-2.47,1.07-3.49s1.54-1.81,2.5-2.38h-9.19v-0.55h19.09c0.17,0,0.3-0.04,0.4-0.13c0.1-0.08,0.15-0.19,0.15-0.32h0.55
			c0,0.17-0.02,0.29-0.06,0.36c-0.09,0.2-0.24,0.36-0.43,0.47c-0.19,0.11-0.4,0.17-0.62,0.17h-1.88c0.96,0.61,1.74,1.43,2.35,2.45
			c0.61,1.02,0.91,2.08,0.91,3.17c0,1-0.21,1.92-0.64,2.77c-0.42,0.85-0.99,1.58-1.7,2.2s-1.5,1.1-2.38,1.44
			C115.73,105.91,114.83,106.08,113.91,106.08z M116.37,93.55h-5.17c-0.78,0.28-1.48,0.73-2.1,1.36c-0.63,0.63-1.13,1.34-1.51,2.14
			s-0.57,1.59-0.57,2.37c0,0.94,0.19,1.79,0.58,2.53s0.91,1.39,1.58,1.92c0.66,0.54,1.4,0.95,2.21,1.23
			c0.81,0.29,1.65,0.43,2.52,0.43c0.9,0,1.77-0.16,2.59-0.48c0.82-0.32,1.55-0.78,2.2-1.37c0.65-0.59,1.15-1.27,1.52-2.03
			c0.37-0.76,0.55-1.59,0.55-2.48c0-0.55-0.12-1.15-0.35-1.79c-0.23-0.64-0.55-1.24-0.97-1.81c-0.42-0.57-0.89-1.04-1.41-1.41
			C117.52,93.79,116.96,93.59,116.37,93.55z"/>
		<path d="M121.05,88.73h-1.77v-0.55h1.77V88.73z"/>
		<path d="M121.32,77.53c0,1.27-0.35,2.41-1.07,3.42c-0.71,1.01-1.54,1.82-2.5,2.45h9.19v0.55h-20.26v-0.55h3.04
			c-0.96-0.61-1.74-1.43-2.35-2.45c-0.61-1.02-0.91-2.08-0.91-3.17c0-1.01,0.21-1.94,0.64-2.78c0.42-0.84,0.99-1.57,1.7-2.19
			s1.51-1.1,2.39-1.44c0.89-0.34,1.79-0.51,2.71-0.51c1.31,0,2.53,0.28,3.65,0.83c1.13,0.55,2.03,1.33,2.73,2.32
			C120.98,75.01,121.32,76.18,121.32,77.53z M120.77,77.53c0-0.94-0.19-1.79-0.58-2.53c-0.39-0.75-0.91-1.39-1.58-1.92
			s-1.4-0.95-2.21-1.23c-0.81-0.29-1.64-0.43-2.49-0.43c-0.9,0-1.77,0.16-2.59,0.48c-0.82,0.32-1.55,0.78-2.2,1.37
			c-0.65,0.59-1.16,1.27-1.54,2.03s-0.57,1.59-0.57,2.48c0,0.55,0.12,1.15,0.36,1.79c0.24,0.64,0.57,1.24,0.98,1.81
			c0.42,0.57,0.89,1.04,1.41,1.41c0.53,0.37,1.08,0.57,1.65,0.61h5.18c0.77-0.35,1.48-0.82,2.1-1.41c0.63-0.59,1.13-1.27,1.51-2.03
			S120.77,78.37,120.77,77.53z"/>
		<path d="M100.84,67.09v-0.55h18.2c0.54,0,0.97-0.17,1.28-0.5s0.47-0.78,0.47-1.33c0-0.2-0.02-0.45-0.07-0.73s-0.11-0.55-0.18-0.79
			l0.44-0.19c0.07,0.24,0.15,0.55,0.22,0.94c0.07,0.39,0.11,0.71,0.11,0.97c0,0.65-0.21,1.17-0.63,1.58
			c-0.42,0.41-0.97,0.61-1.66,0.61H100.84z"/>
	</g>
</g>
</svg>
