<?xml version="1.0" encoding="utf-8"?>
<!-- Generator: Adobe Illustrator 24.2.3, SVG Export Plug-In . SVG Version: 6.00 Build 0)  -->
<svg version="1.1" id="Layer_1" xmlns="http://www.w3.org/2000/svg" xmlns:xlink="http://www.w3.org/1999/xlink" x="0px" y="0px"
	 viewBox="0 0 622 417" style="enable-background:new 0 0 622 417;" xml:space="preserve">
<style type="text/css">
	.st0{fill:#39BF24;}
	.st1{fill:#D25EF2;stroke:#D25EF2;stroke-miterlimit:10;}
</style>
<g>
	<g>
		<g>
			<path class="st0" d="M106.01,268.17c-3.96-2.33-7.58-4.22-10.83-5.68c-3.26-1.46-6.82-2.77-10.66-3.93
				c-3.84-1.16-7.63-1.75-11.36-1.75c-2.91,0-5.3,0.46-7.17,1.39c-1.87,0.92-2.8,2.48-2.8,4.67c0,2.08,0.93,3.75,2.8,5.02
				c1.86,1.27,4.51,2.43,7.95,3.46c3.44,1.04,7.54,2.31,12.32,3.81c7.69,2.31,14.33,4.96,19.92,7.97c5.59,3,9.9,6.84,12.93,11.52
				c3.03,4.67,4.54,10.88,4.54,18.61c0,7.39-1.34,13.6-4.02,18.62c-2.68,5.02-6.29,9.03-10.83,12.03c-4.54,3-9.61,5.17-15.2,6.5
				c-5.59,1.32-11.3,1.99-17.13,1.99c-5.94,0-12.15-0.61-18.61-1.83c-6.47-1.22-12.73-2.91-18.79-5.07
				c-6.06-2.15-11.59-4.69-16.6-7.6l14.68-29.88c4.66,2.8,8.91,5.07,12.76,6.82c3.84,1.75,8.13,3.32,12.84,4.72
				c4.72,1.4,9.46,2.1,14.24,2.1c3.73,0,6.32-0.47,7.78-1.42c1.46-0.94,2.18-2.2,2.18-3.75c0-2.43-1.28-4.31-3.84-5.64
				c-2.56-1.33-5.91-2.6-10.05-3.82c-4.14-1.21-8.71-2.63-13.72-4.25c-7.22-2.43-13.17-5.18-17.83-8.24
				c-4.66-3.06-8.1-6.71-10.31-10.93c-2.21-4.22-3.32-9.34-3.32-15.36c0-9.14,2.15-16.77,6.47-22.91
				c4.31-6.13,9.99-10.79,17.04-13.97c7.05-3.18,14.65-4.77,22.81-4.77c6.06,0,11.91,0.73,17.56,2.18
				c5.65,1.46,10.95,3.23,15.9,5.33c4.95,2.1,9.29,4.08,13.02,5.94L106.01,268.17z"/>
			<path class="st0" d="M235.33,257.16h-35.65v94.37H165.6v-94.37h-35.83v-29.71h105.55V257.16z"/>
			<path class="st0" d="M276.4,227.45h38.1l39.5,124.08h-34.6l-6.41-24.29h-35.06l-6.41,24.29h-34.78L276.4,227.45z M306.98,304.52
				l-11.53-43.69l-11.53,43.69H306.98z"/>
			<path class="st0" d="M364.3,351.53V227.45h56.97c6.06,0,11.65,1.22,16.78,3.67c5.13,2.45,9.55,5.74,13.28,9.87
				c3.73,4.14,6.61,8.77,8.65,13.89c2.04,5.13,3.06,10.31,3.06,15.55c0,4.78-0.7,9.38-2.1,13.81c-1.4,4.43-3.44,8.48-6.12,12.15
				c-2.68,3.67-5.88,6.85-9.61,9.52l26.21,45.61h-37.4l-21.85-38.1h-13.81v38.1H364.3z M398.38,283.72h21.5
				c1.4,0,2.74-0.52,4.02-1.57c1.28-1.05,2.36-2.56,3.23-4.54c0.87-1.98,1.31-4.37,1.31-7.17c0-2.91-0.5-5.33-1.49-7.25
				c-0.99-1.92-2.21-3.41-3.67-4.46c-1.46-1.05-2.88-1.57-4.28-1.57h-20.62V283.72z"/>
			<path class="st0" d="M578.9,257.16h-35.65v94.37h-34.08v-94.37h-35.83v-29.71H578.9V257.16z"/>
		</g>
	</g>
	<g>
		<g>
			<path class="st1" d="M58.78,197.59V55.51h57.83c5.87,0,11.24,1.23,16.11,3.7c4.87,2.47,9.07,5.77,12.61,9.91
				c3.53,4.14,6.3,8.74,8.3,13.81c2,5.07,3,10.27,3,15.61c0,7.34-1.63,14.31-4.9,20.91c-3.27,6.6-7.77,11.97-13.51,16.11
				c-5.74,4.14-12.48,6.2-20.21,6.2H62.78v55.83H58.78z M62.78,137.76h55.23c7.2,0,13.41-1.93,18.61-5.8
				c5.2-3.87,9.17-8.8,11.91-14.81c2.73-6,4.1-12.21,4.1-18.61c0-6.8-1.6-13.17-4.8-19.11c-3.2-5.93-7.54-10.74-13.01-14.41
				c-5.47-3.67-11.54-5.5-18.21-5.5H62.78V137.76z"/>
			<path class="st1" d="M170.63,167.77c0-5.87,1.83-11.01,5.5-15.41c3.67-4.4,8.7-7.87,15.11-10.41c6.4-2.53,13.81-3.8,22.21-3.8
				c5.87,0,11.91,0.5,18.11,1.5c6.2,1,11.77,2.44,16.71,4.3v-11.81c0-10.81-3.1-19.51-9.31-26.11s-14.44-9.9-24.71-9.9
				c-4.94,0-10.31,1.1-16.11,3.3c-5.8,2.2-11.64,5.37-17.51,9.5l-2.4-3.2c6.67-4.53,13.01-7.94,19.01-10.21
				c6-2.27,11.67-3.4,17.01-3.4c11.61,0,20.84,3.6,27.71,10.81c6.87,7.2,10.31,16.94,10.31,29.22v57.43c0,1.33,0.3,2.33,0.9,3
				c0.6,0.67,1.37,1,2.3,1v4c-0.8,0-1.4-0.03-1.8-0.1c-0.4-0.07-0.73-0.17-1-0.3c-1.33-0.53-2.4-1.5-3.2-2.9
				c-0.8-1.4-1.2-2.97-1.2-4.7v-9.61c-4.8,6.14-11.08,10.94-18.81,14.41c-7.74,3.47-16.14,5.2-25.21,5.2
				c-6.27,0-11.94-1.4-17.01-4.2c-5.07-2.8-9.1-6.63-12.11-11.51C172.13,179.01,170.63,173.64,170.63,167.77z M245.27,177.18
				c1.07-1.47,1.83-2.9,2.3-4.3c0.47-1.4,0.7-2.7,0.7-3.9v-20.61c-5.34-2.13-10.91-3.7-16.71-4.7c-5.8-1-11.84-1.5-18.11-1.5
				c-11.61,0-20.98,2.33-28.11,7c-7.14,4.67-10.71,10.87-10.71,18.61c0,5.2,1.3,9.91,3.9,14.11s6.17,7.54,10.71,10
				c4.53,2.47,9.54,3.7,15.01,3.7c8.94,0,17.11-1.67,24.51-5C236.17,187.25,241.67,182.78,245.27,177.18z"/>
			<path class="st1" d="M360.93,197.59l-44.22-59.66l-28.21,25.71v33.95h-4V51.51h4v106.7l70.84-64.48h5.4l-45.02,41.38l46.02,62.47
				H360.93z"/>
			<path class="st1" d="M386.14,66.92V51.51h4v15.41H386.14z M386.14,197.59V93.73h4v103.85H386.14z"/>
			<path class="st1" d="M466.18,199.59c-6.8,0-13.24-1.44-19.31-4.3c-6.07-2.87-11.41-6.8-16.01-11.81s-8.2-10.81-10.81-17.41
				c-2.6-6.6-3.9-13.64-3.9-21.11c0-9.74,2.2-18.61,6.6-26.61c4.4-8,10.3-14.37,17.71-19.11c7.4-4.73,15.64-7.1,24.71-7.1
				c9.2,0,17.57,2.4,25.11,7.2c7.54,4.8,13.57,11.24,18.11,19.31c4.53,8.07,6.8,17.11,6.8,27.11c0,0.4,0,0.77,0,1.1
				c0,0.33,0,0.7,0,1.1h-95.05c0.67,8.94,3.13,17.01,7.4,24.21c4.27,7.2,9.81,12.91,16.61,17.11c6.8,4.2,14.21,6.3,22.21,6.3
				s15.47-2.03,22.41-6.1c6.94-4.07,11.87-9.3,14.81-15.71l3.8,1c-1.87,4.67-4.9,8.91-9.11,12.71c-4.2,3.8-9.1,6.77-14.71,8.9
				C477.99,198.52,472.18,199.59,466.18,199.59z M420.16,143.96H511c-0.53-9.34-2.87-17.57-7-24.71
				c-4.14-7.13-9.54-12.77-16.21-16.91c-6.67-4.13-14.14-6.2-22.41-6.2c-8.14,0-15.54,2.07-22.21,6.2
				c-6.67,4.14-12.04,9.8-16.11,17.01C422.99,126.55,420.69,134.75,420.16,143.96z"/>
			<path class="st1" d="M579.43,193.79c-3.34,2-6.4,3.47-9.21,4.4c-2.8,0.93-6.07,1.4-9.8,1.4c-3.2,0-6.17-0.68-8.9-2.02
				c-2.74-1.35-4.94-3.23-6.6-5.66c-1.67-2.43-2.5-5.26-2.5-8.49V97.74h-15.01v-4h15.01V57.52h4v36.22h25.01v4h-25.01v85.72
				c0.27,3.91,1.8,6.91,4.6,9c2.8,2.09,5.93,3.13,9.41,3.13c4.67,0,8.6-0.8,11.81-2.4c3.2-1.6,4.87-2.47,5-2.6L579.43,193.79z"/>
		</g>
	</g>
</g>
</svg>
