<?xml version="1.0" encoding="utf-8"?>
<!-- Generator: Adobe Illustrator 24.2.3, SVG Export Plug-In . SVG Version: 6.00 Build 0)  -->
<svg version="1.1" id="Layer_1" xmlns="http://www.w3.org/2000/svg" xmlns:xlink="http://www.w3.org/1999/xlink" x="0px" y="0px"
	 viewBox="0 0 293 209.87" style="enable-background:new 0 0 293 209.87;" xml:space="preserve">
<style type="text/css">
	.st0{fill:#D98E04;stroke:#D98E04;stroke-miterlimit:10;}
</style>
<g>
	<g>
		<path class="st0" d="M14.78,11.72v25.53h-3.08V6.05h2.55l20.48,26.02V6.1h3.08v31.16h-2.86L14.78,11.72z"/>
		<path class="st0" d="M57.19,37.69c-1.67,0-3.2-0.31-4.59-0.94c-1.39-0.63-2.59-1.49-3.6-2.58c-1.01-1.09-1.79-2.35-2.35-3.76
			s-0.83-2.91-0.83-4.48c0-1.63,0.28-3.15,0.83-4.57s1.35-2.67,2.37-3.76s2.23-1.95,3.63-2.58c1.39-0.63,2.91-0.94,4.55-0.94
			c1.64,0,3.15,0.31,4.53,0.94c1.38,0.63,2.58,1.49,3.6,2.58c1.03,1.09,1.82,2.34,2.37,3.76s0.83,2.94,0.83,4.57
			c0,1.57-0.28,3.07-0.83,4.48s-1.34,2.67-2.35,3.76c-1.01,1.09-2.21,1.95-3.6,2.58S58.83,37.69,57.19,37.69z M48.84,25.98
			c0,1.69,0.37,3.22,1.12,4.6s1.75,2.47,3.01,3.27c1.26,0.8,2.65,1.2,4.18,1.2c1.52,0,2.91-0.41,4.17-1.22
			c1.26-0.81,2.27-1.93,3.03-3.34c0.76-1.41,1.14-2.96,1.14-4.65c0-1.66-0.38-3.18-1.14-4.58c-0.76-1.4-1.77-2.5-3.03-3.32
			c-1.26-0.81-2.65-1.22-4.17-1.22c-1.52,0-2.92,0.42-4.18,1.27c-1.26,0.84-2.26,1.96-3.01,3.34S48.84,24.26,48.84,25.98z"/>
		<path class="st0" d="M104.74,14.45h2.95l-9.84,22.81h-2.59l-4.79-11.34l-4.75,11.34h-2.59l-9.84-22.81h2.9l8.35,19.74l4.22-10.29
			l-3.87-9.41h2.68l2.9,7.4l2.94-7.4h2.64l-3.82,9.41l4.22,10.29L104.74,14.45z"/>
		<path class="st0" d="M123.82,37.69c-1.67,0-3.2-0.31-4.59-0.94c-1.39-0.63-2.59-1.49-3.6-2.58c-1.01-1.09-1.79-2.35-2.35-3.76
			s-0.83-2.91-0.83-4.48c0-1.63,0.28-3.15,0.83-4.57s1.35-2.67,2.37-3.76s2.23-1.95,3.63-2.58c1.39-0.63,2.91-0.94,4.55-0.94
			c1.64,0,3.15,0.31,4.53,0.94c1.38,0.63,2.58,1.49,3.6,2.58c1.03,1.09,1.82,2.34,2.37,3.76s0.83,2.94,0.83,4.57
			c0,1.57-0.28,3.07-0.83,4.48s-1.34,2.67-2.35,3.76c-1.01,1.09-2.21,1.95-3.6,2.58S125.46,37.69,123.82,37.69z M115.47,25.98
			c0,1.69,0.37,3.22,1.12,4.6s1.75,2.47,3.01,3.27c1.26,0.8,2.65,1.2,4.18,1.2c1.52,0,2.91-0.41,4.17-1.22
			c1.26-0.81,2.27-1.93,3.03-3.34c0.76-1.41,1.14-2.96,1.14-4.65c0-1.66-0.38-3.18-1.14-4.58c-0.76-1.4-1.77-2.5-3.03-3.32
			c-1.26-0.81-2.65-1.22-4.17-1.22c-1.52,0-2.92,0.42-4.18,1.27c-1.26,0.84-2.26,1.96-3.01,3.34S115.47,24.26,115.47,25.98z"/>
		<path class="st0" d="M152.47,37.69c-1.67,0-3.2-0.31-4.59-0.94c-1.39-0.63-2.61-1.49-3.65-2.6c-1.04-1.11-1.85-2.37-2.42-3.8
			s-0.86-2.94-0.86-4.54c0-2.16,0.48-4.12,1.45-5.9s2.31-3.19,4.04-4.24s3.72-1.57,5.98-1.57c2.14,0,4.03,0.49,5.67,1.47
			c1.64,0.98,2.86,2.31,3.65,3.98l-2.9,0.92c-0.64-1.17-1.55-2.09-2.7-2.75s-2.44-0.99-3.84-0.99c-1.52,0-2.92,0.39-4.18,1.18
			c-1.26,0.79-2.26,1.86-3.01,3.23s-1.12,2.92-1.12,4.67c0,1.72,0.38,3.27,1.14,4.67c0.76,1.4,1.77,2.51,3.03,3.34
			c1.26,0.83,2.65,1.24,4.18,1.24c1,0,1.96-0.18,2.88-0.53s1.73-0.83,2.42-1.43c0.69-0.6,1.15-1.25,1.38-1.96l2.94,0.88
			c-0.41,1.08-1.09,2.06-2.04,2.92c-0.95,0.87-2.07,1.54-3.34,2.02C155.3,37.45,153.93,37.69,152.47,37.69z"/>
		<path class="st0" d="M167.1,35.23l15.34-18.55h-14.99v-2.24h18.37v2.02l-15.25,18.55h15.21v2.24H167.1V35.23z"/>
		<path class="st0" d="M202.92,37.69c-1.64,0-3.17-0.31-4.57-0.94s-2.62-1.49-3.65-2.58s-1.82-2.36-2.39-3.79
			c-0.57-1.43-0.86-2.96-0.86-4.6c0-2.12,0.49-4.07,1.47-5.84c0.98-1.77,2.34-3.19,4.06-4.25c1.73-1.06,3.69-1.59,5.89-1.59
			c2.25,0,4.23,0.54,5.91,1.62c1.68,1.08,3.01,2.5,3.98,4.26s1.45,3.69,1.45,5.78c0,0.23,0,0.46,0,0.68c0,0.22-0.01,0.39-0.04,0.5
			h-19.6c0.15,1.63,0.61,3.08,1.38,4.35c0.78,1.27,1.79,2.27,3.03,3.02c1.25,0.74,2.6,1.11,4.07,1.11c1.49,0,2.91-0.38,4.24-1.14
			s2.26-1.76,2.79-2.99l2.59,0.7c-0.47,1.08-1.19,2.07-2.15,2.94s-2.1,1.56-3.41,2.04C205.81,37.45,204.41,37.69,202.92,37.69z
			 M194.48,24.77h16.92c-0.12-1.65-0.56-3.1-1.34-4.35s-1.79-2.23-3.03-2.94s-2.61-1.07-4.11-1.07s-2.86,0.36-4.09,1.07
			s-2.23,1.7-3.01,2.96C195.05,21.71,194.6,23.15,194.48,24.77z"/>
		<path class="st0" d="M228.72,37.69c-1.88,0-3.62-0.31-5.23-0.92s-3-1.55-4.17-2.81l1.23-2.11c1.29,1.2,2.59,2.07,3.89,2.61
			c1.3,0.54,2.69,0.81,4.15,0.81c1.79,0,3.24-0.36,4.35-1.07c1.11-0.71,1.67-1.74,1.67-3.07c0-0.9-0.27-1.59-0.81-2.08
			c-0.54-0.48-1.32-0.87-2.33-1.18c-1.01-0.31-2.22-0.63-3.63-0.98c-1.58-0.44-2.91-0.9-3.98-1.38c-1.07-0.48-1.88-1.09-2.42-1.84
			c-0.54-0.74-0.81-1.71-0.81-2.91c0-1.49,0.37-2.72,1.12-3.69c0.75-0.98,1.77-1.72,3.08-2.23c1.3-0.51,2.76-0.76,4.37-0.76
			c1.76,0,3.31,0.28,4.66,0.83c1.35,0.56,2.45,1.33,3.3,2.33l-1.45,2.02c-0.82-0.94-1.79-1.63-2.92-2.09s-2.38-0.68-3.76-0.68
			c-0.94,0-1.83,0.12-2.68,0.37c-0.85,0.25-1.54,0.66-2.09,1.22c-0.54,0.57-0.81,1.35-0.81,2.34c0,0.82,0.21,1.45,0.62,1.9
			s1.03,0.83,1.85,1.14s1.83,0.63,3.03,0.98c1.73,0.47,3.24,0.94,4.53,1.42c1.29,0.48,2.29,1.1,2.99,1.86
			c0.7,0.76,1.05,1.82,1.05,3.19c0,2.13-0.81,3.79-2.42,4.98C233.48,37.1,231.35,37.69,228.72,37.69z"/>
		<path class="st0" d="M264.05,37.25h-2.99V24.55c0-2.68-0.4-4.63-1.19-5.87s-2.04-1.86-3.74-1.86c-1.17,0-2.33,0.28-3.47,0.85
			c-1.14,0.57-2.15,1.34-3.01,2.31c-0.86,0.97-1.49,2.08-1.87,3.33v13.94h-2.99V14.45h2.72v5.2c0.62-1.11,1.42-2.08,2.42-2.91
			c1-0.83,2.12-1.48,3.38-1.94c1.26-0.47,2.56-0.7,3.91-0.7c1.26,0,2.33,0.23,3.21,0.7s1.58,1.13,2.11,1.99
			c0.53,0.86,0.91,1.89,1.14,3.1s0.35,2.56,0.35,4.04V37.25z"/>
		<path class="st0" d="M274.11,44.29c0.41,0.03,0.81,0.05,1.19,0.07c0.38,0.01,0.66-0.01,0.83-0.07c0.35-0.06,0.69-0.26,1.01-0.61
			c0.32-0.35,0.7-1.02,1.14-2.01c0.44-0.99,1.05-2.45,1.85-4.38l-9.98-22.83h3.16l8.39,19.77l7.73-19.77h2.99L280.57,43.9
			c-0.21,0.55-0.51,1.07-0.92,1.56s-0.92,0.86-1.52,1.14c-0.6,0.28-1.34,0.43-2.22,0.46c-0.26,0.03-0.53,0.04-0.81,0.02
			c-0.28-0.02-0.61-0.05-0.99-0.11V44.29z"/>
		<path class="st0" d="M23.36,71.17h2.31l-2.8,13.37c3.4-4.21,7.54-7.66,12.4-10.33c4.86-2.67,9.56-4.01,14.1-4.01
			c4.78,0,8.85,1.28,12.22,3.83c3.36,2.55,5.94,5.88,7.72,9.97c1.78,4.09,2.67,8.45,2.67,13.07c0,4.78-0.93,9.46-2.8,14.04
			c-1.87,4.58-4.42,8.69-7.66,12.34c-3.24,3.65-7.01,6.57-11.31,8.75c-4.3,2.19-8.88,3.28-13.74,3.28c-5.27,0-9.69-1.56-13.25-4.68
			c-3.57-3.12-6.16-6.79-7.78-11l-8.63,40.36H4.39L23.36,71.17z M36.98,133.05c4.46,0,8.65-1.05,12.58-3.16
			c3.93-2.11,7.4-4.9,10.39-8.39c3-3.48,5.35-7.33,7.05-11.55c1.7-4.21,2.55-8.43,2.55-12.64c0-4.38-0.85-8.45-2.55-12.22
			c-1.7-3.77-4.11-6.79-7.23-9.06c-3.12-2.27-6.79-3.4-11-3.4c-2.27,0-4.84,0.53-7.72,1.58c-2.88,1.05-5.69,2.49-8.45,4.32
			c-2.76,1.82-5.15,3.89-7.17,6.2c-2.03,2.31-3.4,4.72-4.13,7.23l-4.86,22.73c0.73,3.4,2.05,6.49,3.95,9.24
			c1.9,2.76,4.27,4.97,7.11,6.63C30.33,132.22,33.49,133.05,36.98,133.05z"/>
		<path class="st0" d="M99.95,71.17h2.43l-3.4,16.29c3.32-4.94,7.13-8.77,11.43-11.49c4.3-2.71,8.63-4.27,13.01-4.68
			c0.41-0.08,0.81-0.12,1.22-0.12c0.41,0,0.77,0,1.09,0l-0.49,2.43c-5.67,0.24-10.98,2.21-15.93,5.9
			c-4.94,3.69-8.88,8.65-11.79,14.89l-8.51,39.88h-2.43L99.95,71.17z"/>
		<path class="st0" d="M156.24,135.49c-5.11,0-9.36-1.18-12.77-3.53c-3.4-2.35-5.96-5.51-7.66-9.48c-1.7-3.97-2.55-8.35-2.55-13.13
			c0-5.51,0.99-10.64,2.98-15.38c1.99-4.74,4.68-8.89,8.08-12.46c3.4-3.57,7.25-6.34,11.55-8.33c4.29-1.99,8.71-2.98,13.25-2.98
			c5.11,0,9.34,1.2,12.71,3.59c3.36,2.39,5.9,5.57,7.6,9.54c1.7,3.97,2.55,8.39,2.55,13.25c0,5.43-0.97,10.5-2.92,15.2
			c-1.95,4.7-4.6,8.84-7.96,12.4c-3.36,3.57-7.19,6.34-11.49,8.33C165.32,134.49,160.86,135.49,156.24,135.49z M156.61,133.05
			c4.21,0,8.29-0.91,12.22-2.74c3.93-1.82,7.46-4.38,10.58-7.66c3.12-3.28,5.59-7.11,7.42-11.49c1.82-4.38,2.74-9.08,2.74-14.1
			c0-4.46-0.77-8.53-2.31-12.22c-1.54-3.69-3.85-6.65-6.93-8.88c-3.08-2.23-6.97-3.34-11.67-3.34c-4.22,0-8.29,0.93-12.22,2.8
			c-3.93,1.87-7.46,4.46-10.58,7.78c-3.12,3.32-5.59,7.17-7.42,11.55c-1.82,4.38-2.74,9.12-2.74,14.22c0,4.46,0.77,8.51,2.31,12.16
			c1.54,3.65,3.87,6.55,6.99,8.69C148.11,131.98,151.99,133.05,156.61,133.05z"/>
		<path class="st0" d="M221.28,73.6h-8.63l0.49-2.43h8.75l0.49-2.55c0.49-2.59,1.34-5.29,2.55-8.08c1.22-2.8,2.81-5.43,4.8-7.9
			c1.99-2.47,4.36-4.48,7.11-6.02c2.75-1.54,5.92-2.31,9.48-2.31c2.75,0,5.11,0.32,7.05,0.97c1.94,0.65,3.42,1.3,4.44,1.95
			c1.01,0.65,1.52,1.05,1.52,1.22l-2.19,1.46c-0.57-0.73-1.87-1.44-3.89-2.13c-2.03-0.69-4.54-1.03-7.54-1.03
			c-3.89,0-7.29,1.14-10.21,3.4c-2.92,2.27-5.27,5.09-7.05,8.45c-1.78,3.36-3,6.71-3.65,10.03l-0.49,2.55h28.21l-13.37,63.1h-2.43
			l12.89-60.67h-25.9l-12.89,60.67h-2.43L221.28,73.6z"/>
		<path class="st0" d="M275.02,135.49c-2.27,0-4.05-0.67-5.35-2.02c-1.3-1.34-1.95-3.16-1.95-5.45c0-0.41,0.02-0.81,0.06-1.22
			c0.04-0.41,0.1-0.86,0.18-1.35l16.9-79.93h2.43l-16.9,79.94c-0.08,0.33-0.14,0.65-0.18,0.98c-0.04,0.33-0.06,0.65-0.06,0.98
			c0,3.84,2.11,5.75,6.32,5.75c0.89,0,1.95-0.1,3.16-0.3c1.22-0.2,2.35-0.46,3.4-0.79l0.37,1.95c-1.05,0.32-2.43,0.65-4.13,0.97
			C277.57,135.32,276.15,135.49,275.02,135.49z"/>
		<path class="st0" d="M31.83,171.87H21.58v26.26h-2.84v-26.26H8.49v-2.51h23.34V171.87z"/>
		<path class="st0" d="M66.56,177.1h2.72l-9.08,21.03h-2.39l-4.42-10.46l-4.38,10.46h-2.39l-9.08-21.03h2.67l7.7,18.21l3.89-9.49
			l-3.57-8.68h2.47l2.67,6.82l2.72-6.82h2.43l-3.53,8.68l3.89,9.49L66.56,177.1z"/>
		<path class="st0" d="M86.38,198.53c-1.54,0-2.95-0.29-4.24-0.87s-2.39-1.37-3.32-2.38c-0.93-1.01-1.66-2.16-2.17-3.47
			c-0.51-1.3-0.77-2.68-0.77-4.13c0-1.5,0.26-2.91,0.77-4.21c0.51-1.3,1.24-2.46,2.19-3.47c0.95-1.01,2.06-1.8,3.34-2.38
			s2.68-0.87,4.2-0.87c1.51,0,2.9,0.29,4.17,0.87c1.27,0.58,2.38,1.37,3.32,2.38c0.95,1.01,1.67,2.16,2.19,3.47
			c0.51,1.3,0.77,2.71,0.77,4.21c0,1.45-0.26,2.83-0.77,4.13c-0.51,1.3-1.24,2.46-2.17,3.47c-0.93,1.01-2.04,1.8-3.32,2.38
			C89.29,198.25,87.89,198.53,86.38,198.53z M78.68,187.73c0,1.56,0.34,2.97,1.03,4.25c0.69,1.27,1.61,2.28,2.78,3.02
			c1.16,0.74,2.44,1.11,3.85,1.11c1.4,0,2.69-0.38,3.85-1.13c1.16-0.75,2.09-1.78,2.8-3.08c0.7-1.3,1.05-2.73,1.05-4.29
			c0-1.53-0.35-2.94-1.05-4.22c-0.7-1.29-1.63-2.31-2.8-3.06c-1.16-0.75-2.45-1.13-3.85-1.13c-1.41,0-2.69,0.39-3.85,1.17
			c-1.16,0.78-2.09,1.8-2.78,3.08C79.02,184.72,78.68,186.15,78.68,187.73z"/>
		<path class="st0" d="M102.71,205.46c-0.89,0-1.74-0.12-2.53-0.36s-1.49-0.65-2.09-1.22l1.34-1.86c0.41,0.38,0.87,0.63,1.4,0.77
			c0.53,0.13,1.05,0.2,1.56,0.2c0.65,0,1.26-0.16,1.82-0.48c0.57-0.32,1.03-0.78,1.4-1.35c0.36-0.58,0.55-1.22,0.55-1.92V177.1h2.76
			v21.98c0,1.24-0.3,2.34-0.89,3.31c-0.59,0.97-1.37,1.72-2.31,2.26C104.76,205.19,103.76,205.46,102.71,205.46z M106.15,172.68
			v-4.05h2.76v4.05H106.15z"/>
		<path class="st0" d="M128.52,198.53c-1.51,0-2.92-0.29-4.21-0.87s-2.42-1.37-3.36-2.38c-0.95-1.01-1.68-2.17-2.21-3.49
			c-0.53-1.32-0.79-2.73-0.79-4.24c0-1.96,0.45-3.75,1.36-5.39c0.9-1.64,2.15-2.94,3.75-3.92s3.4-1.47,5.43-1.47
			c2.08,0,3.9,0.5,5.45,1.49c1.55,0.99,2.78,2.3,3.67,3.92c0.89,1.62,1.34,3.4,1.34,5.33c0,0.21,0,0.42,0,0.62s-0.01,0.36-0.04,0.46
			h-18.07c0.13,1.51,0.56,2.84,1.28,4.01s1.65,2.1,2.8,2.78c1.15,0.68,2.4,1.03,3.75,1.03c1.38,0,2.68-0.35,3.91-1.05
			c1.23-0.7,2.09-1.62,2.57-2.76l2.39,0.65c-0.43,1-1.09,1.91-1.99,2.72s-1.94,1.44-3.14,1.88
			C131.19,198.31,129.9,198.53,128.52,198.53z M120.74,186.62h15.6c-0.11-1.52-0.52-2.86-1.24-4.01c-0.72-1.15-1.65-2.05-2.8-2.71
			c-1.15-0.65-2.41-0.98-3.79-0.98c-1.38,0-2.63,0.33-3.77,0.98c-1.13,0.66-2.06,1.56-2.78,2.73
			C121.26,183.79,120.85,185.12,120.74,186.62z"/>
		<path class="st0" d="M144.45,205.46c-0.89,0-1.74-0.12-2.53-0.36s-1.49-0.65-2.09-1.22l1.34-1.86c0.41,0.38,0.87,0.63,1.4,0.77
			c0.53,0.13,1.05,0.2,1.56,0.2c0.65,0,1.26-0.16,1.82-0.48c0.57-0.32,1.03-0.78,1.4-1.35c0.36-0.58,0.55-1.22,0.55-1.92V177.1h2.76
			v21.98c0,1.24-0.3,2.34-0.89,3.31c-0.59,0.97-1.37,1.72-2.31,2.26C146.5,205.19,145.5,205.46,144.45,205.46z M147.89,172.68v-4.05
			h2.76v4.05H147.89z"/>
		<path class="st0" d="M176.91,179.2h-2.92v-2.19h2.92v-0.57c0-1,0.15-1.99,0.45-2.96s0.75-1.86,1.36-2.67
			c0.61-0.81,1.38-1.46,2.31-1.95c0.93-0.49,2.05-0.73,3.34-0.73c1,0,1.9,0.11,2.69,0.32c0.8,0.22,1.49,0.47,2.09,0.77
			s1.04,0.57,1.34,0.81l-1.26,1.99c-0.43-0.41-1.07-0.75-1.92-1.03c-0.85-0.28-1.78-0.43-2.78-0.43c-1.13,0-2.06,0.29-2.78,0.87
			c-0.72,0.58-1.24,1.32-1.58,2.21s-0.51,1.8-0.51,2.71v0.65h10.58v21.11h-2.76V179.2h-7.82v18.93h-2.76V179.2z"/>
		<path class="st0" d="M211.27,179.45c-1.84,0.05-3.45,0.57-4.84,1.54c-1.39,0.97-2.37,2.31-2.94,4.01v13.13h-2.76V177.1h2.59v4.99
			c0.73-1.49,1.7-2.69,2.9-3.61c1.2-0.92,2.48-1.43,3.83-1.54c0.27-0.03,0.51-0.04,0.71-0.04c0.2,0,0.37,0.01,0.51,0.04V179.45z"/>
		<path class="st0" d="M250.79,198.13h-2.76v-11.72c0-2.44-0.39-4.24-1.18-5.39s-1.95-1.73-3.49-1.73c-1.59,0-3.02,0.56-4.28,1.69
			c-1.26,1.13-2.14,2.58-2.65,4.35v12.8h-2.76v-11.72c0-2.47-0.38-4.27-1.13-5.42c-0.76-1.14-1.92-1.71-3.49-1.71
			c-1.57,0-2.99,0.55-4.25,1.65c-1.27,1.1-2.16,2.55-2.67,4.34v12.85h-2.76V177.1h2.51v4.79c0.89-1.64,2.03-2.9,3.42-3.79
			c1.39-0.89,2.94-1.33,4.64-1.33c1.76,0,3.17,0.5,4.26,1.49c1.08,0.99,1.74,2.3,1.99,3.91c0.97-1.77,2.14-3.12,3.51-4.03
			c1.36-0.91,2.91-1.37,4.64-1.37c1.19,0,2.2,0.22,3.02,0.64c0.82,0.43,1.49,1.04,1.99,1.83s0.86,1.75,1.09,2.86
			c0.23,1.12,0.34,2.36,0.34,3.73V198.13z"/>
		<path class="st0" d="M262.25,204.61c0.38,0.03,0.74,0.05,1.09,0.06c0.35,0.01,0.61-0.01,0.77-0.06c0.32-0.05,0.63-0.24,0.93-0.57
			c0.3-0.32,0.65-0.94,1.05-1.86c0.41-0.92,0.97-2.26,1.7-4.04l-9.2-21.06h2.92l7.74,18.23l7.13-18.23h2.76l-10.94,27.16
			c-0.19,0.51-0.47,0.99-0.85,1.43c-0.38,0.45-0.84,0.79-1.4,1.05c-0.55,0.25-1.24,0.4-2.05,0.42c-0.24,0.03-0.49,0.03-0.75,0.02
			c-0.26-0.01-0.56-0.05-0.91-0.1V204.61z"/>
	</g>
</g>
</svg>
