<?xml version="1.0" encoding="utf-8"?>
<!-- Generator: Adobe Illustrator 24.0.1, SVG Export Plug-In . SVG Version: 6.00 Build 0)  -->
<svg version="1.1" xmlns="http://www.w3.org/2000/svg" xmlns:xlink="http://www.w3.org/1999/xlink" x="0px" y="0px"
	 viewBox="0 0 350 350" style="enable-background:new 0 0 350 350;" xml:space="preserve">
<style type="text/css">
	.st0{display:none;}
	.st1{display:inline;fill:#592B1B;}
	.st2{fill:#F2C879;}
	.st3{fill:#F2A649;}
	.st4{fill:#8C3616;}
	.st5{fill:#592B1B;}
	.st6{fill:#0D0D0D;}
	.st7{display:inline;}
	.st8{fill:#999999;}
	.st9{fill:#FFFFFF;}
	.st10{fill:none;stroke:#000000;stroke-width:0.25;stroke-miterlimit:10;}
	.st11{fill:none;stroke:#000000;stroke-width:0.25;stroke-miterlimit:10;stroke-dasharray:46.9623,46.9623;}
</style>
<g id="bg_to_test" class="st0">
	<rect x="-20" y="-20" class="st1" width="390" height="390"/>
</g>
<g id="colors_pallette">
	<rect x="71.2" y="-1126.5" class="st2" width="163" height="163"/>
	<rect x="279.84" y="-1126.5" class="st3" width="163" height="163"/>
	<rect x="499.01" y="-1126.5" class="st4" width="163" height="163"/>
	<rect x="709.16" y="-1126.5" class="st5" width="163" height="163"/>
	<rect x="917.8" y="-1126.5" class="st6" width="163" height="163"/>
</g>
<g id="helps" class="st0">
	<g class="st7">
		<rect x="644.21" y="-56.46" class="st8" width="10.25" height="10.25"/>
		<path d="M654.33-56.33v10h-10v-10H654.33 M654.58-56.58h-0.25h-10h-0.25v0.25v10v0.25h0.25h10h0.25v-0.25v-10V-56.58L654.58-56.58
			z"/>
	</g>
	<g class="st7">
		<rect x="654.21" y="-56.46" class="st8" width="10.25" height="10.25"/>
		<path d="M664.33-56.33v10h-10v-10H664.33 M664.58-56.58h-0.25h-10h-0.25v0.25v10v0.25h0.25h10h0.25v-0.25v-10V-56.58L664.58-56.58
			z"/>
	</g>
	<g class="st7">
		<rect x="644.21" y="-46.46" class="st8" width="20.25" height="20.25"/>
		<path d="M664.33-46.33v20h-20v-20H664.33 M664.58-46.58h-0.25h-20h-0.25v0.25v20v0.25h0.25h20h0.25v-0.25v-20V-46.58L664.58-46.58
			z"/>
	</g>
	<g class="st7">
		<rect x="614.21" y="-56.46" class="st8" width="30.25" height="30.25"/>
		<path d="M644.33-56.33v30h-30v-30H644.33 M644.58-56.58h-0.25h-30h-0.25v0.25v30v0.25h0.25h30h0.25v-0.25v-30V-56.58L644.58-56.58
			z"/>
	</g>
	<g class="st7">
		<rect x="614.21" y="-106.46" class="st8" width="50.25" height="50.25"/>
		<path d="M664.33-106.33v50h-50v-50H664.33 M664.58-106.58h-0.25h-50h-0.25v0.25v50v0.25h0.25h50h0.25v-0.25v-50V-106.58
			L664.58-106.58z"/>
	</g>
	<g class="st7">
		<rect x="664.21" y="-106.46" class="st8" width="80.25" height="80.25"/>
		<path d="M744.33-106.33v80h-80v-80H744.33 M744.58-106.58h-0.25h-80h-0.25v0.25v80v0.25h0.25h80h0.25v-0.25v-80V-106.58
			L744.58-106.58z"/>
	</g>
	<g id="fibonacci_group" class="st7">
		<g id="fib_1_">
			<g>
				<rect x="198.28" y="183.74" class="st8" width="28.87" height="28.87"/>
			</g>
			<g>
				<rect x="198.28" y="212.61" class="st8" width="28.87" height="28.87"/>
			</g>
			<g>
				<rect x="227.15" y="183.74" class="st8" width="57.74" height="57.74"/>
			</g>
			<g>
				<rect x="198.28" y="97.13" class="st8" width="86.61" height="86.61"/>
			</g>
		</g>
		<g>
			<rect x="53.93" y="97.13" class="st8" width="144.35" height="144.35"/>
		</g>
	</g>
	<rect x="25" y="80.41" class="st5" width="300" height="178"/>
</g>
<g id="logo">
	<g id="bottom">
		<rect x="25" y="258.4" width="300" height="11.19"/>
	</g>
	<g id="ramka_stroke" class="st0">
		<path class="st7" d="M310,80.41h-25v1h25V80.41L310,80.41L310,80.41z M260,80.41h-25v1h25V80.41L260,80.41z M210,80.41h-25v1h25
			V80.41L210,80.41z M160,80.41h-25v1h25V80.41L160,80.41z M110,80.41H85v1h25V80.41L110,80.41z M60,80.41H40c-0.01,0-0.01,0-0.02,0
			c0,0,0,0-0.01,0c-0.01,0-0.01,0-0.02,0c0,0-0.01,0-0.01,0c-0.01,0-0.01,0-0.01,0c0,0-0.01,0-0.01,0c-0.01,0-0.01,0-0.02,0
			c0,0,0,0-0.01,0c-0.01,0-0.01,0-0.02,0c0,0,0,0,0,0c-0.01,0-0.01,0-0.02,0c0,0-0.01,0-0.01,0c-0.01,0-0.01,0-0.02,0
			c0,0-0.01,0-0.01,0c-0.01,0-0.01,0-0.01,0c0,0-0.01,0-0.01,0c-0.01,0-0.01,0-0.02,0c0,0,0,0-0.01,0c-0.01,0-0.01,0-0.02,0
			c0,0,0,0,0,0c-0.01,0-0.01,0-0.02,0c0,0-0.01,0-0.01,0c0,0-0.01,0-0.01,0c0,0-0.01,0-0.01,0c-0.01,0-0.01,0-0.01,0
			c0,0-0.01,0-0.01,0c-0.01,0-0.01,0-0.02,0c0,0,0,0-0.01,0c-0.01,0-0.01,0-0.02,0c0,0,0,0-0.01,0c-0.01,0-0.01,0-0.02,0
			c0,0-0.01,0-0.01,0c0,0-0.01,0-0.01,0c0,0-0.01,0-0.01,0c0,0-0.01,0-0.01,0c0,0-0.01,0-0.01,0c-0.01,0-0.01,0-0.02,0
			c0,0,0,0-0.01,0c-0.01,0-0.02,0-0.02,0c0,0,0,0-0.01,0c-0.01,0-0.01,0-0.02,0c0,0-0.01,0-0.01,0c-0.01,0-0.01,0-0.01,0
			c0,0-0.01,0-0.01,0c-0.01,0-0.01,0-0.01,0c0,0-0.01,0-0.01,0c-0.01,0-0.01,0-0.02,0c0,0,0,0-0.01,0c-0.01,0-0.01,0-0.02,0
			c0,0,0,0-0.01,0c-0.01,0-0.01,0-0.02,0c0,0-0.01,0-0.01,0c-0.01,0-0.01,0-0.01,0c0,0-0.01,0-0.01,0c0,0-0.01,0-0.01,0
			c0,0-0.01,0-0.01,0c-0.01,0-0.01,0-0.02,0c0,0,0,0-0.01,0c-0.01,0-0.01,0-0.02,0c0,0-0.01,0-0.01,0c0,0-0.01,0-0.01,0
			c0,0-0.01,0-0.01,0c0,0-0.01,0-0.01,0c0,0-0.01,0-0.01,0c0,0-0.01,0-0.01,0c0,0-0.01,0-0.01,0c0,0-0.01,0-0.02,0c0,0,0,0-0.01,0
			c-0.01,0-0.01,0-0.02,0c0,0-0.01,0-0.01,0c0,0-0.01,0-0.01,0c0,0-0.01,0-0.01,0c0,0-0.01,0-0.01,0c0,0-0.01,0-0.01,0
			c0,0-0.01,0-0.01,0c0,0-0.01,0-0.01,0c-0.01,0-0.01,0-0.02,0c0,0-0.01,0-0.01,0c-0.01,0-0.01,0-0.02,0c0,0-0.01,0-0.01,0
			c0,0-0.01,0-0.01,0c0,0-0.01,0-0.01,0c0,0-0.01,0-0.01,0c0,0-0.01,0-0.01,0c0,0-0.01,0-0.01,0c0,0-0.01,0-0.01,0
			c0,0-0.01,0-0.01,0c-0.01,0-0.01,0-0.02,0c0,0-0.01,0-0.01,0c0,0-0.01,0-0.01,0c0,0-0.01,0-0.01,0c0,0-0.01,0-0.01,0
			c0,0-0.01,0-0.01,0c0,0-0.01,0-0.01,0c0,0-0.01,0-0.01,0c0,0-0.01,0-0.01,0c0,0-0.01,0-0.01,0c-0.01,0-0.01,0-0.02,0
			c0,0-0.01,0-0.01,0c0,0-0.01,0-0.01,0c0,0-0.01,0-0.01,0c0,0-0.01,0-0.01,0c0,0-0.01,0-0.01,0c0,0-0.01,0-0.01,0
			c0,0-0.01,0-0.01,0c0,0-0.01,0-0.01,0c0,0-0.01,0-0.01,0c-0.01,0-0.01,0-0.02,0c0,0-0.01,0-0.01,0c0,0-0.01,0-0.01,0
			c0,0-0.01,0-0.01,0c0,0-0.01,0-0.01,0c0,0-0.01,0-0.01,0c0,0-0.01,0-0.01,0c0,0-0.01,0-0.01,0c-0.02,0-0.03,0-0.05,0
			c0,0-0.01,0-0.01,0c0,0-0.01,0-0.01,0c0,0-0.01,0-0.01,0c0,0-0.01,0-0.01,0c0,0,0,0-0.01,0c0,0-0.01,0-0.01,0c0,0,0,0-0.01,0
			c-0.02,0-0.03,0-0.05,0.01c0,0,0,0-0.01,0c0,0-0.01,0-0.01,0c0,0,0,0-0.01,0c0,0-0.01,0-0.01,0c0,0,0,0-0.01,0c0,0-0.01,0-0.01,0
			c0,0,0,0-0.01,0c-0.02,0-0.03,0-0.05,0.01c0,0,0,0-0.01,0c0,0-0.01,0-0.01,0c0,0,0,0-0.01,0c0,0-0.01,0-0.01,0c0,0,0,0-0.01,0
			c-0.01,0-0.01,0-0.02,0c0,0,0,0,0,0c-0.02,0-0.04,0-0.05,0.01c0,0,0,0,0,0c-0.01,0-0.01,0-0.02,0c0,0,0,0,0,0
			c-0.01,0-0.01,0-0.02,0c0,0,0,0,0,0c-0.02,0-0.05,0.01-0.07,0.01c0,0,0,0,0,0c-0.01,0-0.01,0-0.02,0c0,0,0,0,0,0
			c-0.01,0-0.01,0-0.02,0c0,0,0,0,0,0c-0.02,0-0.05,0.01-0.07,0.01c0,0,0,0,0,0c-0.01,0-0.01,0-0.02,0c0,0,0,0,0,0
			c-0.01,0-0.01,0-0.02,0c0,0,0,0,0,0c-0.03,0-0.06,0.01-0.1,0.01c0,0,0,0,0,0c-0.95,0.14-1.87,0.36-2.75,0.67l0.33,0.94
			c1.47-0.51,3.01-0.77,4.58-0.77h20V80.41L60,80.41z M26,101.84h-1v25h1V101.84L26,101.84z M26,151.84h-1v25h1V151.84L26,151.84z
			 M26,201.84h-1v25h1V201.84L26,201.84z M26,251.84h-1v6.56v11.19h1l0,0l0,0l0,0l0,0c1.99,0,6.25,0,6.25,0v-1H26V258.4V251.84
			L26,251.84z M82.25,268.59h-25v1h25V268.59L82.25,268.59z M132.25,268.59h-25v1h25V268.59L132.25,268.59z M182.25,268.59h-25v1h25
			V268.59L182.25,268.59z M232.25,268.59h-25v1h25V268.59L232.25,268.59z M282.25,268.59h-25v1h25V268.59L282.25,268.59z
			 M325,262.34h-1v6.25h-16.75v1H325V262.34L325,262.34z M325,212.34h-1v25h1V212.34L325,212.34z M325,162.34h-1v25h1V162.34
			L325,162.34z M325,112.34h-1v25h1V112.34L325,112.34z M310,80.41v1c4.9,0,9.51,2.62,12.02,6.83l0.86-0.51
			c-0.06-0.1-0.12-0.2-0.18-0.29l0,0c-0.01-0.01-0.02-0.03-0.02-0.04c0,0,0,0,0,0c-0.01-0.01-0.02-0.02-0.02-0.04c0,0,0,0,0,0
			c-0.01-0.01-0.02-0.02-0.02-0.04c0,0,0,0,0,0c-0.01-0.01-0.02-0.02-0.02-0.04c0,0,0,0,0,0c-0.01-0.01-0.02-0.02-0.02-0.04
			c0,0,0,0,0,0c-0.01-0.01-0.01-0.02-0.02-0.02l0,0c0,0-0.01-0.01-0.01-0.01c0,0,0,0,0,0c-0.01-0.01-0.02-0.02-0.02-0.03
			c0,0,0,0,0,0c0-0.01-0.01-0.01-0.01-0.02c0,0,0,0,0,0c0,0,0-0.01-0.01-0.01c0,0,0,0,0,0c0-0.01-0.01-0.01-0.01-0.02c0,0,0,0,0,0
			c0,0,0-0.01-0.01-0.01c0,0,0,0,0,0c0-0.01-0.01-0.01-0.01-0.02c0,0,0,0,0,0c0,0,0-0.01-0.01-0.01c0,0,0,0,0,0
			c0-0.01-0.01-0.01-0.01-0.02c0,0,0,0,0,0c0,0,0-0.01-0.01-0.01c0,0,0,0,0,0c0-0.01-0.01-0.01-0.01-0.02c0,0,0,0,0,0
			c0,0,0-0.01-0.01-0.01c0,0,0,0,0,0c0-0.01-0.01-0.01-0.01-0.02c0,0,0,0,0-0.01c0,0,0-0.01-0.01-0.01c0,0,0-0.01-0.01-0.01
			c0,0-0.01-0.01-0.01-0.01c0,0,0-0.01-0.01-0.01c0,0,0-0.01-0.01-0.01c0,0,0-0.01-0.01-0.01c0,0-0.01-0.01-0.01-0.01
			c0,0,0,0,0-0.01c0,0,0-0.01-0.01-0.01c0,0,0-0.01-0.01-0.01c0,0-0.01-0.01-0.01-0.01c0,0,0-0.01-0.01-0.01c0,0,0-0.01-0.01-0.01
			c0,0-0.01-0.01-0.01-0.01c0,0,0-0.01-0.01-0.01c0,0,0,0-0.01-0.01c0,0,0-0.01-0.01-0.01c0,0-0.01-0.01-0.01-0.01
			c0,0,0-0.01-0.01-0.01c0,0,0-0.01-0.01-0.01c0,0,0-0.01-0.01-0.01c0,0-0.01-0.01-0.01-0.01c0,0,0-0.01-0.01-0.01
			c0,0,0-0.01-0.01-0.01c0,0,0,0-0.01-0.01c0,0-0.01-0.01-0.01-0.01c0,0,0,0,0-0.01c0,0,0-0.01-0.01-0.01c0,0,0,0,0-0.01
			c0,0-0.01-0.01-0.01-0.01c0,0,0,0,0-0.01c0,0,0-0.01-0.01-0.01c0,0,0,0,0-0.01c0,0-0.01-0.01-0.01-0.01c0,0,0,0,0-0.01
			c0,0-0.01-0.01-0.01-0.01c0,0,0,0,0-0.01c0,0-0.01-0.01-0.01-0.01c0,0,0,0,0-0.01c0,0-0.01-0.01-0.01-0.01c0,0,0,0,0-0.01
			c0,0-0.01-0.01-0.01-0.01c0,0,0,0,0-0.01c0,0-0.01-0.01-0.01-0.01c0,0,0,0,0,0c0,0-0.01-0.01-0.01-0.02c0,0,0,0,0,0
			c0,0-0.01-0.01-0.01-0.01c0,0,0,0,0,0c0,0-0.01-0.01-0.01-0.02c0,0,0,0,0,0c0,0-0.01-0.01-0.01-0.01c0,0,0,0,0,0
			c0,0-0.01-0.01-0.01-0.01c0,0,0,0,0-0.01c0,0-0.01-0.01-0.01-0.01c0,0,0,0,0,0c0,0-0.01-0.01-0.01-0.01c0,0,0,0,0-0.01
			c0,0-0.01-0.01-0.01-0.01c0,0,0,0,0,0c0,0-0.01-0.01-0.01-0.01c0,0,0,0,0,0c0,0-0.01-0.01-0.01-0.01c0,0,0,0,0,0
			c0,0-0.01-0.01-0.01-0.01c0,0,0,0,0,0c0-0.01-0.01-0.01-0.01-0.02c0,0,0,0,0,0c0,0-0.01-0.01-0.01-0.01c0,0,0,0,0,0
			c0-0.01-0.01-0.01-0.01-0.02c0,0,0,0,0,0c0,0-0.01-0.01-0.01-0.01c0,0,0,0,0,0c0-0.01-0.01-0.01-0.01-0.02c0,0,0,0,0,0
			c0-0.01-0.01-0.01-0.01-0.02c0,0,0,0,0,0c0-0.01-0.01-0.01-0.01-0.02c0,0,0,0,0,0c0-0.01-0.01-0.01-0.01-0.02c0,0,0,0,0,0
			c0-0.01-0.01-0.01-0.01-0.02c0,0,0,0,0,0c0-0.01-0.01-0.01-0.01-0.02c0,0,0,0,0,0c0-0.01-0.01-0.01-0.01-0.02c0,0,0,0,0,0
			c0-0.01-0.01-0.01-0.01-0.02c0,0,0,0,0,0c0-0.01-0.01-0.01-0.01-0.02c0,0,0,0,0,0c0-0.01-0.01-0.01-0.01-0.02c0,0,0,0,0,0
			c0-0.01-0.01-0.01-0.01-0.02c0,0,0,0,0,0c0-0.01-0.01-0.01-0.01-0.02c0,0,0,0,0,0c0-0.01-0.01-0.01-0.01-0.02c0,0,0,0,0,0
			c0-0.01-0.01-0.01-0.01-0.02c0,0,0,0,0,0c0-0.01-0.01-0.01-0.01-0.02c0,0,0,0,0,0c0-0.01-0.01-0.01-0.01-0.02c0,0,0,0,0,0
			c0-0.01-0.01-0.01-0.01-0.02c0,0,0,0,0,0c0-0.01-0.01-0.01-0.01-0.02l0,0c0-0.01-0.01-0.01-0.01-0.02c0,0,0,0,0,0
			c-0.01-0.01-0.02-0.02-0.03-0.03c0,0,0,0,0,0c0-0.01-0.01-0.01-0.01-0.02l0,0c0-0.01-0.01-0.01-0.01-0.02c0,0,0,0,0,0
			c-0.01-0.01-0.02-0.02-0.03-0.03c0,0,0,0,0,0c-0.01-0.01-0.02-0.02-0.03-0.03c0,0,0,0,0,0c-0.01-0.01-0.02-0.02-0.03-0.03
			c0,0,0,0,0,0c-0.01-0.01-0.02-0.02-0.03-0.03c0,0,0,0,0,0c-0.01-0.01-0.02-0.02-0.03-0.03c0,0,0,0,0,0
			c-0.01-0.01-0.02-0.02-0.03-0.03c0,0,0,0,0,0c-0.01-0.01-0.02-0.02-0.03-0.03l0,0c-0.01-0.01-0.02-0.02-0.03-0.03c0,0,0,0,0,0
			c-0.01-0.01-0.02-0.02-0.03-0.03l0,0c-0.01-0.01-0.02-0.02-0.03-0.03l0,0c-1.79-2.04-4.13-3.59-6.78-4.43l0,0
			c-0.01,0-0.03-0.01-0.04-0.01c0,0,0,0,0,0c-0.03-0.01-0.06-0.02-0.09-0.03l0,0c-0.01,0-0.03-0.01-0.04-0.01c0,0,0,0,0,0
			c-0.01,0-0.03-0.01-0.04-0.01l0,0c-0.01,0-0.03-0.01-0.04-0.01c0,0,0,0,0,0c-0.01,0-0.03-0.01-0.04-0.01l0,0
			c-0.01,0-0.03-0.01-0.04-0.01l0,0c-0.01,0-0.03-0.01-0.04-0.01c0,0,0,0,0,0c-0.1-0.03-0.19-0.05-0.29-0.08c0,0,0,0,0,0
			c-0.01,0-0.03-0.01-0.04-0.01c0,0,0,0,0,0c-0.01,0-0.03-0.01-0.04-0.01c0,0,0,0,0,0c-0.01,0-0.03-0.01-0.04-0.01c0,0,0,0,0,0
			c-0.02,0-0.03-0.01-0.04-0.01c0,0,0,0,0,0c-0.02,0-0.03-0.01-0.04-0.01c0,0,0,0,0,0c-0.02,0-0.03-0.01-0.04-0.01c0,0,0,0,0,0
			c-0.02,0-0.03-0.01-0.04-0.01c0,0,0,0,0,0c-0.02,0-0.03-0.01-0.04-0.01c0,0,0,0,0,0c-0.02,0-0.03-0.01-0.04-0.01c0,0,0,0,0,0
			c-0.02,0-0.03-0.01-0.04-0.01c0,0,0,0,0,0c-0.01,0-0.03-0.01-0.04-0.01c0,0,0,0,0,0c-0.02,0-0.03-0.01-0.04-0.01c0,0,0,0,0,0
			c-0.02,0-0.03-0.01-0.04-0.01l0,0c-0.01,0-0.01,0-0.02,0c0,0,0,0,0,0c-0.01,0-0.01,0-0.02,0c0,0,0,0,0,0c-0.01,0-0.01,0-0.02,0
			c0,0,0,0,0,0c-0.01,0-0.01,0-0.02,0c0,0,0,0,0,0c-0.01,0-0.01,0-0.02,0c0,0,0,0,0,0c-0.01,0-0.01,0-0.02,0c0,0,0,0,0,0
			c-0.01,0-0.01,0-0.02,0c0,0,0,0,0,0c-0.01,0-0.01,0-0.02,0c0,0,0,0,0,0c-0.01,0-0.01,0-0.02,0c0,0,0,0,0,0
			c-0.01,0-0.03-0.01-0.04-0.01c0,0,0,0,0,0c-0.01,0-0.01,0-0.02,0c0,0,0,0,0,0c-0.01,0-0.01,0-0.02,0c0,0,0,0,0,0
			c-0.01,0-0.01,0-0.02,0l0,0c-0.01,0-0.01,0-0.02,0c0,0,0,0,0,0c-0.01,0-0.03-0.01-0.04-0.01c0,0,0,0,0,0
			c-0.01,0-0.03-0.01-0.04-0.01c0,0,0,0,0,0c-0.01,0-0.03-0.01-0.04-0.01c0,0,0,0,0,0c-0.01,0-0.03-0.01-0.04-0.01c0,0,0,0,0,0
			c-0.01,0-0.03-0.01-0.04-0.01c0,0,0,0,0,0c-0.01,0-0.03-0.01-0.04-0.01c0,0,0,0,0,0c-0.01,0-0.03,0-0.04-0.01c0,0,0,0,0,0
			c-0.01,0-0.03,0-0.04-0.01c0,0,0,0,0,0c-0.01,0-0.03,0-0.04-0.01c0,0,0,0,0,0c-0.01,0-0.01,0-0.02,0l0,0c-0.01,0-0.01,0-0.02,0
			c0,0,0,0,0,0c-0.01,0-0.01,0-0.02,0c0,0,0,0,0,0c-0.01,0-0.01,0-0.02,0c0,0,0,0,0,0c-0.01,0-0.01,0-0.02,0c0,0,0,0,0,0
			c-0.01,0-0.01,0-0.02,0c0,0,0,0,0,0c-0.01,0-0.01,0-0.02,0c0,0,0,0,0,0c-0.01,0-0.01,0-0.02,0c0,0,0,0,0,0c-0.01,0-0.01,0-0.02,0
			c0,0,0,0,0,0c-0.01,0-0.01,0-0.02,0c0,0,0,0,0,0c-0.01,0-0.01,0-0.02,0c0,0,0,0,0,0c-0.01,0-0.01,0-0.02,0c0,0,0,0,0,0
			c-0.01,0-0.01,0-0.02,0c0,0,0,0,0,0c-0.01,0-0.01,0-0.02,0c0,0,0,0,0,0c-0.01,0-0.01,0-0.02,0c0,0,0,0,0,0c-0.01,0-0.01,0-0.02,0
			c0,0,0,0,0,0c-0.01,0-0.01,0-0.02,0c0,0,0,0,0,0c-0.01,0-0.01,0-0.02,0c0,0,0,0,0,0c-0.01,0-0.01,0-0.02,0c0,0,0,0,0,0
			c-0.01,0-0.01,0-0.02,0c0,0,0,0,0,0c-0.01,0-0.01,0-0.02,0c0,0,0,0,0,0c-0.01,0-0.01,0-0.02,0l0,0c-0.01,0-0.01,0-0.02,0
			c0,0,0,0,0,0c-0.01,0-0.01,0-0.02,0l0,0c-0.01,0-0.01,0-0.02,0c0,0,0,0,0,0c-0.01,0-0.03,0-0.04-0.01c0,0,0,0,0,0
			c-0.01,0-0.03,0-0.04-0.01c0,0,0,0,0,0c-0.01,0-0.03,0-0.04-0.01c0,0,0,0,0,0c-0.01,0-0.01,0-0.02,0c0,0,0,0,0,0
			c-0.01,0-0.01,0-0.02,0c0,0,0,0,0,0c-0.01,0-0.01,0-0.02,0c0,0,0,0,0,0c-0.01,0-0.01,0-0.02,0c0,0,0,0,0,0c-0.01,0-0.01,0-0.02,0
			c0,0,0,0,0,0c-0.01,0-0.01,0-0.02,0c0,0,0,0,0,0c-0.01,0-0.01,0-0.02,0c0,0,0,0,0,0c-0.01,0-0.01,0-0.02,0c0,0,0,0,0,0
			c-0.01,0-0.01,0-0.02,0c0,0,0,0,0,0c-0.01,0-0.01,0-0.02,0c0,0,0,0,0,0c-0.01,0-0.01,0-0.02,0c0,0,0,0,0,0c-0.01,0-0.01,0-0.02,0
			c0,0,0,0,0,0c-0.01,0-0.01,0-0.02,0c0,0,0,0,0,0c-0.01,0-0.01,0-0.02,0c0,0,0,0,0,0c-0.01,0-0.01,0-0.02,0c0,0,0,0,0,0
			c-0.01,0-0.01,0-0.02,0c0,0,0,0,0,0c-0.01,0-0.01,0-0.02,0c0,0,0,0,0,0c-0.01,0-0.01,0-0.02,0c0,0,0,0,0,0c-0.01,0-0.01,0-0.02,0
			c0,0,0,0,0,0c-0.01,0-0.01,0-0.02,0c0,0,0,0,0,0c-0.01,0-0.01,0-0.02,0c0,0,0,0,0,0c-0.01,0-0.01,0-0.02,0c0,0,0,0,0,0
			c-0.01,0-0.01,0-0.02,0c0,0,0,0,0,0c-0.01,0-0.01,0-0.02,0c0,0,0,0,0,0c-0.01,0-0.01,0-0.02,0c0,0,0,0,0,0c-0.01,0-0.01,0-0.02,0
			c0,0,0,0,0,0c-0.01,0-0.01,0-0.02,0c0,0,0,0,0,0c-0.01,0-0.01,0-0.02,0c0,0,0,0,0,0c-0.01,0-0.01,0-0.02,0c0,0,0,0,0,0
			c-0.01,0-0.03,0-0.04,0c0,0,0,0,0,0c-0.01,0-0.03,0-0.04,0c0,0,0,0,0,0c-0.01,0-0.03,0-0.04,0c0,0,0,0,0,0c-0.01,0-0.03,0-0.04,0
			c0,0,0,0,0,0c-0.01,0-0.01,0-0.02,0h0c-0.01,0-0.01,0-0.02,0c0,0,0,0-0.01,0c-0.01,0-0.01,0-0.02,0c0,0,0,0,0,0
			c-0.01,0-0.01,0-0.02,0c0,0,0,0,0,0c-0.01,0-0.01,0-0.02,0c0,0,0,0,0,0c-0.01,0-0.01,0-0.02,0c0,0,0,0-0.01,0
			c-0.01,0-0.01,0-0.02,0c0,0,0,0,0,0c-0.01,0-0.01,0-0.02,0c0,0,0,0,0,0c-0.01,0-0.01,0-0.02,0c0,0,0,0,0,0c-0.01,0-0.01,0-0.02,0
			c0,0,0,0,0,0c-0.01,0-0.01,0-0.02,0c0,0,0,0,0,0c-0.01,0-0.01,0-0.02,0c0,0,0,0,0,0c-0.01,0-0.01,0-0.02,0c0,0,0,0,0,0
			c-0.01,0-0.01,0-0.02,0c0,0,0,0,0,0c-0.01,0-0.01,0-0.02,0c0,0,0,0,0,0c-0.01,0-0.01,0-0.02,0c0,0,0,0,0,0c-0.01,0-0.01,0-0.02,0
			c0,0,0,0,0,0c-0.01,0-0.01,0-0.02,0c0,0,0,0,0,0c-0.01,0-0.01,0-0.02,0c0,0,0,0,0,0c-0.01,0-0.01,0-0.02,0c0,0,0,0,0,0
			c-0.01,0-0.01,0-0.02,0c0,0,0,0,0,0c-0.01,0-0.01,0-0.02,0c0,0,0,0,0,0c-0.01,0-0.01,0-0.02,0c0,0,0,0,0,0c-0.01,0-0.01,0-0.02,0
			c0,0,0,0,0,0c-0.01,0-0.01,0-0.02,0c0,0,0,0,0,0c-0.01,0-0.01,0-0.02,0c0,0,0,0,0,0c-0.01,0-0.01,0-0.02,0c0,0,0,0-0.01,0
			c-0.01,0-0.01,0-0.02,0c0,0,0,0,0,0c-0.01,0-0.01,0-0.02,0c0,0,0,0-0.01,0c-0.01,0-0.01,0-0.02,0c0,0,0,0,0,0
			c-0.01,0-0.01,0-0.02,0c0,0,0,0,0,0c-0.01,0-0.01,0-0.02,0c0,0,0,0,0,0c-0.01,0-0.01,0-0.02,0c0,0,0,0-0.01,0
			c-0.01,0-0.01,0-0.02,0c0,0,0,0,0,0c-0.01,0-0.01,0-0.02,0c0,0,0,0-0.01,0C310.01,80.41,310.01,80.41,310,80.41L310,80.41z"/>
	</g>
	<g id="newId_group">
		<g>
			<rect id="id_backgroud" x="198.28" y="97.08" width="86.61" height="86.61"/>
			<path id="i_letter" class="st9" d="M208.02,170.9v-61.49h11.95v61.49H208.02z"/>
			<path id="d_letter" class="st9" d="M228.2,148.47c0-4.28,0.87-8.19,2.6-11.73c1.73-3.54,4.13-6.34,7.19-8.39
				c3.06-2.06,6.55-3.08,10.48-3.08c3.29,0,6.29,0.82,9.01,2.47c2.71,1.65,4.79,3.74,6.24,6.28v-26.33h11.69v50.23
				c0,1.21,0.2,2.08,0.61,2.6c0.4,0.52,1.1,0.84,2.08,0.95v9.44c-2.08,0.4-3.72,0.58-4.94,0.52c-2.08,0.06-3.8-0.43-5.15-1.47
				c-1.36-1.04-2.12-2.4-2.3-4.07l-0.17-2.86c-1.67,2.83-3.94,4.99-6.8,6.5c-2.86,1.5-5.85,2.25-8.96,2.25
				c-3.12,0-5.99-0.59-8.62-1.76c-2.63-1.17-4.91-2.83-6.84-4.97c-1.94-2.14-3.44-4.63-4.5-7.45
				C228.74,154.77,228.2,151.73,228.2,148.47z M263.8,154.33V143.8c-0.58-1.64-1.5-3.12-2.77-4.42c-1.27-1.3-2.68-2.34-4.24-3.1
				c-1.56-0.76-3.12-1.15-4.68-1.15c-1.79,0-3.41,0.37-4.85,1.1c-1.44,0.74-2.7,1.73-3.77,2.97c-1.07,1.25-1.88,2.68-2.43,4.29
				c-0.55,1.61-0.82,3.33-0.82,5.14c0,1.87,0.32,3.61,0.95,5.23c0.63,1.61,1.5,3.03,2.6,4.25c1.1,1.22,2.43,2.15,3.98,2.8
				c1.56,0.65,3.23,0.98,5.02,0.98c1.15,0,2.28-0.18,3.38-0.55c1.1-0.37,2.15-0.89,3.16-1.57c1.01-0.68,1.92-1.47,2.73-2.38
				C262.87,156.48,263.45,155.47,263.8,154.33z"/>
		</g>
		<path id="N_letter" d="M83.41,130.88v110.6h-18.3V97.13h15.45l88.24,112.83V97.13l18.3,0v144.35h-16.67L83.41,130.88z"/>
		<path id="e_letter" d="M216.09,241.72c-2.44,0-4.75-0.39-6.94-1.17c-2.18-0.78-4.08-1.84-5.7-3.2c-1.62-1.35-2.89-2.93-3.8-4.72
			c-0.91-1.79-1.37-3.7-1.37-5.72c0-2.63,0.77-5.02,2.32-7.18c1.55-2.16,3.65-3.89,6.3-5.19c2.65-1.3,5.62-1.94,8.91-1.94
			c3.38,0,6.4,0.66,9.05,1.97c2.65,1.31,4.78,3.06,6.37,5.24c1.6,2.18,2.39,4.6,2.39,7.27c0,0.14,0,0.29,0,0.43
			c0,0.14-0.02,0.29-0.07,0.43h-32.81c0.23,2.28,1.07,4.34,2.5,6.18c1.43,1.84,3.29,3.31,5.56,4.39c2.28,1.08,4.75,1.63,7.43,1.63
			c2.68,0,5.19-0.53,7.53-1.6c2.35-1.07,4.01-2.43,5-4.09l2.18,0.43c-0.7,1.3-1.81,2.48-3.31,3.52c-1.5,1.05-3.25,1.86-5.25,2.44
			C220.4,241.44,218.3,241.72,216.09,241.72z M200.67,226.38h30.56c-0.19-2.37-0.97-4.47-2.36-6.29c-1.39-1.82-3.2-3.25-5.46-4.29
			s-4.76-1.57-7.53-1.57c-2.72,0-5.2,0.52-7.43,1.57c-2.23,1.04-4.04,2.48-5.42,4.32C201.65,221.95,200.86,224.04,200.67,226.38z"/>
		<path id="w_letter" d="M258.8,224.2l8.53,15.23l15.01-26.83h2.55l-16.47,29.12h-2.19l-8.82-15.79l-8.89,15.79h-2.19l-16.47-29.12
			h2.55l15.09,26.83l8.45-15.23 M258.45,222.41"/>
	</g>
	<g id="upper_stroke" class="st0">
		<g class="st7">
			<g>
				<path class="st10" d="M25,97.13c0,0,0.3-15.02,12.29-16.58"/>
				<line class="st11" x1="84.25" y1="80.43" x2="154.69" y2="80.43"/>
				<line class="st10" x1="178.17" y1="80.43" x2="200.67" y2="80.43"/>
			</g>
		</g>
		<g class="st7">
			<g>
				<path class="st10" d="M325,97.13c0,0-0.3-15.02-12.29-16.58"/>
				<line class="st11" x1="265.75" y1="80.43" x2="195.31" y2="80.43"/>
				<line class="st10" x1="171.83" y1="80.43" x2="149.33" y2="80.43"/>
			</g>
		</g>
	</g>
</g>
</svg>
