            <svg routerLinkActive="active-menu-item" class="menu-item" appPathLengthInfo [parent]="parent" width="100%"
                height="100%" version="1.1" id="Layer_1" xmlns="http://www.w3.org/2000/svg"
                xmlns:xlink="http://www.w3.org/1999/xlink" x="0px" y="0px" viewBox="0 0 95 50">
                <style>
                
                </style>
                <path d="M21.56,23.65c0.29-0.95,1.33-2.93-0.97-3.15c-0.99-0.1-3.08,0.66-3.95,1.13c-2.34,1.29-4.19,3.32-5.45,5.68
c-0.2,0.38-0.34,0.95,0.03,1.17c0.14,0.09,0.32,0.08,0.49,0.07c1.76-0.11,3.45-0.71,5.19-0.99s3.67-0.21,5.07,0.86
c1.49,1.14,2.03,3.37,1.23,5.06c-0.75,1.59-2.43,2.54-4.1,3.11c-2.33,0.79-8.26,1.78-9.85-0.1" />
                <path d="M33.43,7.63c-1.87,6.91-5.5,21.8-4.43,30.51" />
                <path d="M22.21,17.23c4.68,0.03,9.41,0.5,14.11,1.4" />
                <path d="M43.25,24.78c-0.94-0.48-1.65-0.47-3.56,0.53c-1.4,0.73-2.12,1.48-3.21,2.63c-1.09,1.15-1.9,2.6-2.07,4.17
c-0.11,1.03,0.11,2.19,0.94,2.81c1.08,0.81,2.62,0.36,3.8-0.28c2.57-1.39,4.72-3.55,6.09-6.13c0.42-0.8,0.78-1.7,0.59-2.58
c-0.19-0.88-1.15-1.64-1.99-1.3c-0.57,0.23-0.88,0.88-0.89,1.49c-0.01,0.61,0.22,1.2,0.46,1.77c0.85,1.99,0.67,2.61,1.54,4.59
c0.99,2.25,1.7,3.51,2.95,3.22" />
                <path d="M55.55,23.62c0.44,3.03,0.89,6.07,1.33,9.1c0.21,1.45,0.4,3.06-0.42,4.28c-0.16,0.24-0.4,0.48-0.69,0.47
c-0.28-0.01-0.5-0.24-0.66-0.46c-1.03-1.47-0.89-3.53-0.07-5.13c0.82-1.6,2.2-2.83,3.61-3.94c2.93-2.33,6.1-4.37,9.32-6.29
c-0.28,0.16-0.56,0.32-0.84,0.48" />
                <path d="M79.41,9.22c-2.72,6.91-8.16,21.8-8.16,30.51" />
                <path d="M67.02,18.82c4.68,0.03,9.35,0.5,13.94,1.4" />
            </svg>